<?xml version="1.0" encoding="utf-8"?>
<!-- Generator: Adobe Illustrator 24.1.2, SVG Export Plug-In . SVG Version: 6.00 Build 0)  -->
<svg version="1.1" id="Layer_1" xmlns="http://www.w3.org/2000/svg" xmlns:xlink="http://www.w3.org/1999/xlink" x="0px" y="0px"
	 viewBox="0 0 1920 1080" style="enable-background:new 0 0 1920 1080;" xml:space="preserve">
<g style="display:none;opacity:0.75;">
	
		<linearGradient id="SVGID_1_" gradientUnits="userSpaceOnUse" x1="1138.8571" y1="102.507" x2="2630.5208" y2="1594.1707" gradientTransform="matrix(1 0 0 -1 0 1080)">
		<stop  offset="0" style="stop-color:#FFFFFF;stop-opacity:0"/>
		<stop  offset="1" style="stop-color:#FFFFFF"/>
	</linearGradient>
	<polygon style="display:inline;fill:url(#SVGID_1_);" points="1918.9,27 1918.9,367.9 1267.3,1019.4 926.5,1019.4 	"/>
	
		<linearGradient id="SVGID_2_" gradientUnits="userSpaceOnUse" x1="1084.3074" y1="157.0574" x2="2575.9692" y2="1648.7191" gradientTransform="matrix(1 0 0 -1 0 1080)">
		<stop  offset="0" style="stop-color:#FFFFFF;stop-opacity:0"/>
		<stop  offset="1" style="stop-color:#FFFFFF"/>
	</linearGradient>
	<polygon style="display:inline;fill:url(#SVGID_2_);" points="1918.9,0 1918.9,217.6 1117,1019.4 858.6,1019.4 1878,0 	"/>
	
		<linearGradient id="SVGID_3_" gradientUnits="userSpaceOnUse" x1="522.7866" y1="-58.0634" x2="2728.3328" y2="2147.4832" gradientTransform="matrix(1 0 0 -1 0 1080)">
		<stop  offset="0" style="stop-color:#FFFFFF;stop-opacity:0"/>
		<stop  offset="1" style="stop-color:#FFFFFF"/>
	</linearGradient>
	<path style="display:inline;fill:url(#SVGID_3_);" d="M1784.2,0L742.3,1030.8c-47.7-82.6-50-97.4-39.9-195.7L1561,0H1784.2z"/>
</g>
<g>
	<g>
		<defs>
			<rect id="SVGID_4_" width="1920" height="1080"/>
		</defs>
		<clipPath id="SVGID_5_">
			<use xlink:href="#SVGID_4_"  style="overflow:visible;"/>
		</clipPath>
		<path style="clip-path:url(#SVGID_5_);fill:#E1E8EF;" d="M1920,0v1080.5c-93.8,2.9-1920.4,0.4-1920.4,0.4c0.2-0.1,0.3-0.3,0.5-0.4
			c228.5-179.8,511.8-133.8,689.5-178.6c41.8-10.5,77.8-26.1,105.9-50.8c141.1-124.3,46.4-198.3,57.2-349.5
			c8.2-115.9,81.9-206.7,179.8-250c7.3-3.3,14.8-6.2,22.4-8.9c22.3-7.9,45.6-13.5,69.5-16.4c39.7-4.9,142.9-46.5,166.6-84
			c31-49.3,46-91.9,42.3-142.3H1920z"/>
	</g>
	<g>
		<defs>
			<rect id="SVGID_6_" width="1920" height="1080"/>
		</defs>
		<clipPath id="SVGID_7_">
			<use xlink:href="#SVGID_6_"  style="overflow:visible;"/>
		</clipPath>
		<rect x="1718.1" y="1.7" style="clip-path:url(#SVGID_7_);fill:#F2F6FA;" width="177.5" height="899.5"/>
	</g>
	<g>
		<defs>
			<rect id="SVGID_8_" width="1920" height="1080"/>
		</defs>
		<clipPath id="SVGID_9_">
			<use xlink:href="#SVGID_8_"  style="overflow:visible;"/>
		</clipPath>
		<rect x="1589.7" y="1.7" style="clip-path:url(#SVGID_9_);fill:#F2F6FA;" width="74.9" height="899.5"/>
	</g>
	<g>
		<defs>
			<rect id="SVGID_10_" width="1920" height="1080"/>
		</defs>
		<clipPath id="SVGID_11_">
			<use xlink:href="#SVGID_10_"  style="overflow:visible;"/>
		</clipPath>
		<rect x="1399.6" y="1.7" style="clip-path:url(#SVGID_11_);fill:#D1DCE5;" width="22.4" height="899.5"/>
	</g>
	<g>
		<defs>
			<rect id="SVGID_12_" width="1920" height="1080"/>
		</defs>
		<clipPath id="SVGID_13_">
			<use xlink:href="#SVGID_12_"  style="overflow:visible;"/>
		</clipPath>
		<path style="clip-path:url(#SVGID_13_);fill:#D1DCE5;" d="M1054.4,242.5v658.7H1032V251.5C1039.4,248.2,1046.8,245.2,1054.4,242.5
			z"/>
	</g>
	<g>
		<defs>
			<rect id="SVGID_14_" width="1920" height="1080"/>
		</defs>
		<clipPath id="SVGID_15_">
			<use xlink:href="#SVGID_14_"  style="overflow:visible;"/>
		</clipPath>
		<path style="clip-path:url(#SVGID_15_);fill:#D1DCE5;" d="M1920,901.4V1080H-0.9c228.6-179.8,512-133.8,689.8-178.6H1920z"/>
	</g>
	<g>
		<defs>
			<rect id="SVGID_16_" width="1920" height="1080"/>
		</defs>
		<clipPath id="SVGID_17_">
			<use xlink:href="#SVGID_16_"  style="overflow:visible;"/>
		</clipPath>
		<g style="clip-path:url(#SVGID_17_);">
			<rect x="936.2" y="158.4" style="fill:#D1DCE5;" width="621.7" height="385"/>
			<rect x="948.4" y="166" style="fill:#F2F6FA;" width="597.4" height="369.9"/>
			<rect x="972" y="198.8" style="fill:#5C6AC4;" width="28.3" height="28.3"/>
			<rect x="1018.3" y="198.8" style="fill:#D1DCE5;" width="114.2" height="8.1"/>
			<rect x="972" y="281.8" style="fill:#5C6AC4;" width="54" height="28.3"/>
			<rect x="1043.2" y="281.8" style="fill:#D1DCE5;" width="91.7" height="28.3"/>
			<rect x="972" y="330" style="fill:#5C6AC4;" width="54" height="28.3"/>
			<rect x="1043.2" y="330" style="fill:#D1DCE5;" width="91.7" height="28.3"/>
			<rect x="1380.1" y="403.2" style="fill:#5C6AC4;" width="54" height="28.3"/>
			<rect x="1380.1" y="442.2" style="fill:#D1DCE5;" width="91.7" height="28.3"/>
			<rect x="972" y="487.1" style="fill:#5C6AC4;" width="54" height="28.3"/>
			<rect x="1043.2" y="487.1" style="fill:#D1DCE5;" width="91.7" height="28.3"/>
			<rect x="1018.3" y="216.7" style="fill:#D1DCE5;" width="43.6" height="8.1"/>
			<rect x="972" y="371.9" style="fill:#D1DCE5;" width="114.2" height="8.1"/>
			<rect x="972" y="389.8" style="fill:#D1DCE5;" width="43.6" height="8.1"/>
			<rect x="1176.1" y="297.1" style="fill:#D1DCE5;" width="114.2" height="8.1"/>
			<rect x="1176.1" y="315" style="fill:#D1DCE5;" width="43.6" height="8.1"/>
			<rect x="1383.8" y="207.8" style="fill:#D1DCE5;" width="98.9" height="8.1"/>
			<rect x="1383.8" y="225.7" style="fill:#D1DCE5;" width="37.8" height="8.1"/>
			<rect x="1176.1" y="424.8" style="fill:#D1DCE5;" width="114.2" height="8.1"/>
			<rect x="1176.1" y="442.7" style="fill:#D1DCE5;" width="43.6" height="8.1"/>
			<rect x="972" y="444.4" style="fill:#D1DCE5;" width="114.2" height="8.1"/>
			<rect x="972" y="462.2" style="fill:#D1DCE5;" width="43.6" height="8.1"/>
			<g>
				<path style="fill:#D1DCE5;" d="M1196.4,220c-6.7,0.1-11.9,0.2-18.6,0.4c-0.2,0-0.5,0-0.6-0.2c-0.1-0.1-0.2-0.3-0.2-0.5
					c-0.9-4.3-0.9-8.7-0.8-13c0-1.6-0.1-3.3,0.4-4.9c0.2-0.8,0.9-1.7,1.7-1.5c0.5,0.1,0.8,0.5,1.1,0.9c1,1.5,1.9,3.2,3,4.7
					c2.3,3.1,5.9,5.1,9.6,6.1c1.3,0.3,2.6,0.6,3.7,1.2c1,0.6,1.9,1.5,2.9,2c1.2,0.6,4.8,3.2,4.8,3.2
					C1200.2,219.6,1197.8,220,1196.4,220z"/>
				<path style="fill:#D1DCE5;" d="M1236.2,220c-6.7,0.1-11.9,0.2-18.6,0.4c-0.2,0-0.5,0-0.6-0.2c-0.1-0.1-0.2-0.3-0.2-0.5
					c-0.9-4.3-0.9-8.7-0.8-13c0-1.6-0.1-3.3,0.4-4.9c0.2-0.8,0.9-1.7,1.7-1.5c0.5,0.1,0.8,0.5,1.1,0.9c1,1.5,1.9,3.2,3,4.7
					c2.3,3.1,5.9,5.1,9.6,6.1c1.3,0.3,2.6,0.6,3.7,1.2c1,0.6,1.9,1.5,2.9,2c1.2,0.6,4.8,3.2,4.8,3.2
					C1239.9,219.6,1237.5,220,1236.2,220z"/>
				<path style="fill:#D1DCE5;" d="M1273.9,220c-6.7,0.1-11.9,0.2-18.6,0.4c-0.2,0-0.5,0-0.6-0.2c-0.1-0.1-0.2-0.3-0.2-0.5
					c-0.9-4.3-0.9-8.7-0.8-13c0-1.6-0.1-3.3,0.4-4.9c0.2-0.8,0.9-1.7,1.7-1.5c0.5,0.1,0.8,0.5,1.1,0.9c1,1.5,1.9,3.2,3,4.7
					c2.3,3.1,5.9,5.1,9.6,6.1c1.3,0.3,2.6,0.6,3.7,1.2c1,0.6,1.9,1.5,2.9,2c1.2,0.6,4.8,3.2,4.8,3.2
					C1277.7,219.6,1275.3,220,1273.9,220z"/>
				<path style="fill:#D1DCE5;" d="M1196.4,260.7c-6.7,0.1-11.9,0.2-18.6,0.4c-0.2,0-0.5,0-0.6-0.2c-0.1-0.1-0.2-0.3-0.2-0.5
					c-0.9-4.3-0.9-8.7-0.8-13c0-1.6-0.1-3.3,0.4-4.9c0.2-0.8,0.9-1.7,1.7-1.5c0.5,0.1,0.8,0.5,1.1,0.9c1,1.5,1.9,3.2,3,4.7
					c2.3,3.1,5.9,5.1,9.6,6.1c1.3,0.3,2.6,0.6,3.7,1.2c1,0.6,1.9,1.5,2.9,2c1.2,0.6,4.8,3.2,4.8,3.2
					C1200.2,260.3,1197.8,260.7,1196.4,260.7z"/>
				<path style="fill:#D1DCE5;" d="M1236,260.8c-6.7,0.1-11.9,0.2-18.6,0.4c-0.2,0-0.5,0-0.6-0.2c-0.1-0.1-0.2-0.3-0.2-0.5
					c-0.9-4.3-0.9-8.7-0.8-13c0-1.6-0.1-3.3,0.4-4.9c0.2-0.8,0.9-1.7,1.7-1.5c0.5,0.1,0.8,0.5,1.1,0.9c1,1.5,1.9,3.2,3,4.7
					c2.3,3.1,5.9,5.1,9.6,6.1c1.3,0.3,2.6,0.6,3.7,1.2c1,0.6,1.9,1.5,2.9,2c1.2,0.6,4.8,3.2,4.8,3.2
					C1239.8,260.4,1237.4,260.7,1236,260.8z"/>
				<path style="fill:#D1DCE5;" d="M1273.8,260.8c-6.7,0.1-11.9,0.2-18.6,0.4c-0.2,0-0.5,0-0.6-0.2c-0.1-0.1-0.2-0.3-0.2-0.5
					c-0.9-4.3-0.9-8.7-0.8-13c0-1.6-0.1-3.3,0.4-4.9c0.2-0.8,0.9-1.7,1.7-1.5c0.5,0.1,0.8,0.5,1.1,0.9c1,1.5,1.9,3.2,3,4.7
					c2.3,3.1,5.9,5.1,9.6,6.1c1.3,0.3,2.6,0.6,3.7,1.2c1,0.6,1.9,1.5,2.9,2c1.2,0.6,4.8,3.2,4.8,3.2
					C1277.6,260.3,1275.1,260.7,1273.8,260.8z"/>
				<path style="fill:#D1DCE5;" d="M1309.7,220c-6.7,0.1-11.9,0.2-18.6,0.4c-0.2,0-0.5,0-0.6-0.2c-0.1-0.1-0.2-0.3-0.2-0.5
					c-0.9-4.3-0.9-8.7-0.8-13c0-1.6-0.1-3.3,0.4-4.9c0.2-0.8,0.9-1.7,1.7-1.5c0.5,0.1,0.8,0.5,1.1,0.9c1,1.5,1.9,3.2,3,4.7
					c2.3,3.1,5.9,5.1,9.6,6.1c1.3,0.3,2.6,0.6,3.7,1.2c1,0.6,1.9,1.5,2.9,2c1.2,0.6,4.8,3.2,4.8,3.2
					C1313.5,219.6,1311,220,1309.7,220z"/>
				<path style="fill:#D1DCE5;" d="M1344.2,220c-6.7,0.1-11.9,0.2-18.6,0.4c-0.2,0-0.5,0-0.6-0.2c-0.1-0.1-0.2-0.3-0.2-0.5
					c-0.9-4.3-0.9-8.7-0.8-13c0-1.6-0.1-3.3,0.4-4.9c0.2-0.8,0.9-1.7,1.7-1.5c0.5,0.1,0.8,0.5,1.1,0.9c1,1.5,1.9,3.2,3,4.7
					c2.3,3.1,5.9,5.1,9.6,6.1c1.3,0.3,2.6,0.6,3.7,1.2c1,0.6,1.9,1.5,2.9,2c1.2,0.6,4.8,3.2,4.8,3.2
					C1347.9,219.6,1345.5,220,1344.2,220z"/>
				<g>
					<path style="fill:#F5B53F;" d="M1203.3,218.5H1181c-3.1-5-4.7-10.7-4.7-16.5v-8.9h20.9l0.5,9.1c0.3,5.6,2.1,11,5.1,15.6
						L1203.3,218.5z"/>
					<path style="fill:#5E8E3E;" d="M1242.9,218.5h-22.3c-3.1-5-4.7-10.7-4.7-16.5v-8.9h20.9l0.5,9.1c0.3,5.6,2,11,5.1,15.6
						L1242.9,218.5z"/>
					<path style="fill:#95BF47;" d="M1280.7,218.5h-22.3c-3.1-5-4.7-10.7-4.7-16.5v-8.9h20.9l0.5,9.1c0.3,5.6,2,11,5.1,15.6
						L1280.7,218.5z"/>
					<path style="fill:#95BF47;" d="M1203.3,259.2H1181c-3.1-4.9-4.7-10.7-4.7-16.5v-8.9h20.9l0.5,9.1c0.3,5.6,2.1,11,5.1,15.6
						L1203.3,259.2z"/>
					<path style="fill:#F5B53F;" d="M1242.9,259.2h-22.3c-3.1-4.9-4.7-10.7-4.7-16.5v-8.9h20.9l0.5,9.1c0.3,5.6,2,11,5.1,15.6
						L1242.9,259.2z"/>
					<path style="fill:#5E8E3E;" d="M1280.7,259.2h-22.3c-3.1-4.9-4.7-10.7-4.7-16.5v-8.9h20.9l0.5,9.1c0.3,5.6,2,11,5.1,15.6
						L1280.7,259.2z"/>
					<path style="fill:#F5B53F;" d="M1316.5,218.5h-22.3c-3.1-5-4.7-10.7-4.7-16.5v-8.9h20.9l0.5,9.1c0.3,5.6,2,11,5.1,15.6
						L1316.5,218.5z"/>
					<path style="fill:#5E8E3E;" d="M1351.1,218.5h-22.3c-3.1-5-4.7-10.7-4.7-16.5v-8.9h20.9l0.5,9.1c0.3,5.6,2.1,11,5.1,15.6
						L1351.1,218.5z"/>
				</g>
			</g>
			<g>
				<path style="fill:#D1DCE5;" d="M1401.7,315.9c-6.7,0.1-11.9,0.2-18.6,0.4c-0.2,0-0.5,0-0.6-0.2c-0.1-0.1-0.2-0.3-0.2-0.5
					c-0.9-4.3-0.9-8.7-0.8-13c0-1.6-0.1-3.3,0.4-4.9c0.2-0.8,0.9-1.7,1.7-1.5c0.5,0.1,0.8,0.5,1.1,0.9c1,1.5,1.9,3.2,3,4.7
					c2.3,3.1,5.9,5.1,9.6,6.1c1.3,0.3,2.6,0.6,3.7,1.2c1,0.6,1.9,1.5,2.9,2c1.2,0.6,4.8,3.2,4.8,3.2
					C1405.4,315.5,1403,315.8,1401.7,315.9z"/>
				<path style="fill:#D1DCE5;" d="M1441.4,315.9c-6.7,0.1-11.9,0.2-18.6,0.4c-0.2,0-0.5,0-0.6-0.2c-0.1-0.1-0.2-0.3-0.2-0.5
					c-0.9-4.3-0.9-8.7-0.8-13c0-1.6-0.1-3.3,0.4-4.9c0.2-0.8,0.9-1.7,1.7-1.5c0.5,0.1,0.8,0.5,1.1,0.9c1,1.5,1.9,3.2,3,4.7
					c2.3,3.1,5.9,5.1,9.6,6.1c1.3,0.3,2.6,0.6,3.7,1.2c1,0.6,1.9,1.5,2.9,2c1.2,0.6,4.8,3.2,4.8,3.2
					C1445.2,315.5,1442.8,315.8,1441.4,315.9z"/>
				<path style="fill:#D1DCE5;" d="M1479.2,315.9c-6.7,0.1-11.9,0.2-18.6,0.4c-0.2,0-0.5,0-0.6-0.2c-0.1-0.1-0.2-0.3-0.2-0.5
					c-0.9-4.3-0.9-8.7-0.8-13c0-1.6-0.1-3.3,0.4-4.9c0.2-0.8,0.9-1.7,1.7-1.5c0.5,0.1,0.8,0.5,1.1,0.9c1,1.5,1.9,3.2,3,4.7
					c2.3,3.1,5.9,5.1,9.6,6.1c1.3,0.3,2.6,0.6,3.7,1.2c1,0.6,1.9,1.5,2.9,2c1.2,0.6,4.8,3.2,4.8,3.2
					C1482.9,315.5,1480.5,315.8,1479.2,315.9z"/>
				<path style="fill:#D1DCE5;" d="M1401.7,356.6c-6.7,0.1-11.9,0.2-18.6,0.4c-0.2,0-0.5,0-0.6-0.2c-0.1-0.1-0.2-0.3-0.2-0.5
					c-0.9-4.3-0.9-8.7-0.8-13c0-1.6-0.1-3.3,0.4-4.9c0.2-0.8,0.9-1.7,1.7-1.5c0.5,0.1,0.8,0.5,1.1,0.9c1,1.5,1.9,3.2,3,4.7
					c2.3,3.1,5.9,5.1,9.6,6.1c1.3,0.3,2.6,0.6,3.7,1.2c1,0.6,1.9,1.5,2.9,2c1.2,0.6,4.8,3.2,4.8,3.2
					C1405.4,356.1,1403,356.5,1401.7,356.6z"/>
				<path style="fill:#D1DCE5;" d="M1441.3,356.6c-6.7,0.1-11.9,0.2-18.6,0.4c-0.2,0-0.5,0-0.6-0.2c-0.1-0.1-0.2-0.3-0.2-0.5
					c-0.9-4.3-0.9-8.7-0.8-13c0-1.6-0.1-3.3,0.4-4.9c0.2-0.8,0.9-1.7,1.7-1.5c0.5,0.1,0.8,0.5,1.1,0.9c1,1.5,1.9,3.2,3,4.7
					c2.3,3.1,5.9,5.1,9.6,6.1c1.3,0.3,2.6,0.6,3.7,1.2c1,0.6,1.9,1.5,2.9,2c1.2,0.6,4.8,3.2,4.8,3.2
					C1445,356.2,1442.6,356.6,1441.3,356.6z"/>
				<g>
					<path style="fill:#F5B53F;" d="M1408.6,314.3h-22.3c-3.1-5-4.7-10.7-4.7-16.5v-8.9h20.9l0.5,9.1c0.3,5.6,2.1,11,5.1,15.6
						L1408.6,314.3z"/>
					<path style="fill:#5E8E3E;" d="M1448.2,314.3h-22.3c-3.1-5-4.7-10.7-4.7-16.5v-8.9h20.9l0.5,9.1c0.3,5.6,2,11,5.1,15.6
						L1448.2,314.3z"/>
					<path style="fill:#F5B53F;" d="M1486,314.3h-22.3c-3.1-5-4.7-10.7-4.7-16.5v-8.9h20.9l0.5,9.1c0.3,5.6,2,11,5.1,15.6
						L1486,314.3z"/>
					<path style="fill:#95BF47;" d="M1408.6,355h-22.3c-3.1-4.9-4.7-10.7-4.7-16.5v-8.9h20.9l0.5,9.1c0.3,5.6,2.1,11,5.1,15.6
						L1408.6,355z"/>
					<path style="fill:#F5B53F;" d="M1448.2,355h-22.3c-3.1-4.9-4.7-10.7-4.7-16.5v-8.9h20.9l0.5,9.1c0.3,5.6,2,11,5.1,15.6
						L1448.2,355z"/>
				</g>
			</g>
			<g>
				<rect x="1156.6" y="181.8" style="fill:#D1DCE5;" width="1" height="338.2"/>
			</g>
			<g>
				<rect x="1368.6" y="181.8" style="fill:#D1DCE5;" width="1" height="338.2"/>
			</g>
			<g>
				<rect x="1491" y="181.8" style="fill:#D1DCE5;" width="1" height="338.2"/>
			</g>
		</g>
	</g>
	<g>
		<defs>
			<rect id="SVGID_18_" width="1920" height="1080"/>
		</defs>
		<clipPath id="SVGID_19_">
			<use xlink:href="#SVGID_18_"  style="overflow:visible;"/>
		</clipPath>
		<g style="clip-path:url(#SVGID_19_);">
			
				<linearGradient id="SVGID_20_" gradientUnits="userSpaceOnUse" x1="1469.0763" y1="705.9866" x2="1621.9517" y2="705.9866" gradientTransform="matrix(0.9998 1.836897e-02 1.836897e-02 -0.9998 -7.8393 1040.1326)">
				<stop  offset="0" style="stop-color:#000C47"/>
				<stop  offset="1" style="stop-color:#000826"/>
			</linearGradient>
			<path style="fill:url(#SVGID_20_);" d="M1486.6,352c3.1,13.8,5.8,27.9,5.3,42.1s-10.7,32.8-19.4,44c1.5,3.2,15,4.5,18.5,4.6
				c21.3,0.9,39.9-6.3,60.5-11.9c12.2-3.3,24.1-7.8,36-12.2c4-1.5,8.1-3,11.7-5.4c4.1-2.8,7.4-6.6,10.4-10.5
				c10.2-13.1,18.3-29.1,17.1-45.7c-0.8-10.3-5.1-20.2-5.6-30.6c-0.3-5.5,0.5-11.3-1.9-16.2c-3.4-6.8-11.6-9.4-18.9-11.6
				c-16.8-5.2-33-12.4-50.2-15.7c-17.2-3.3-36.3-2.2-50.6,8c-6.9,4.9-16.8,13.7-18.3,22.6C1478.9,325.7,1483.9,340.2,1486.6,352z"/>
			<path style="fill:#101519;" d="M1776.4,826.6c0,0-19.2,12.9-42.8,15.9c-22.1,2.9-48.1-2.8-65.7-35.8
				c-36.2-68.1-17-150.3-17-150.3l4.4-4.3l62.3-60.9L1776.4,826.6z"/>
			<path style="fill:#202932;" d="M1868.3,804.4l-6.7,1.6l-64.2,15.5l-21,5.1c0,0-82.3-54.7-109.5-198.6l6.6-1.8l75.3-20.6
				l45.2-12.3c0,0,13.3,26.5,35.5,48.2C1851.7,663.3,1882.4,703.4,1868.3,804.4z"/>
			<path style="fill:#070A0C;" d="M1797.4,821.5l-21,5.1c0,0-82.3-54.7-109.5-198.6l6.6-1.8c1.3,5,2.5,10.9,3.8,17.6
				C1694.1,735.6,1768.2,799.5,1797.4,821.5z"/>
			<path style="opacity:0.25;fill:#FFFFFF;enable-background:new    ;" d="M1868.3,804.4l-6.7,1.6c9.5-89.8-18.4-132.8-41.8-152.2
				c-24.8-20.6-22.6-42.3-30.9-46.4c-8.3-4-46.3,8.4-46.3,8.4s2.3-4,6.1-10.3l45.2-12.3c0,0,13.3,26.5,35.5,48.2
				C1851.7,663.3,1882.4,703.4,1868.3,804.4z"/>
			
				<linearGradient id="SVGID_21_" gradientUnits="userSpaceOnUse" x1="1558.0999" y1="765.9908" x2="1627.6" y2="765.9908" gradientTransform="matrix(1 0 0 -1 0 1080)">
				<stop  offset="0" style="stop-color:#000C47"/>
				<stop  offset="1" style="stop-color:#000C47"/>
			</linearGradient>
			<path style="fill:url(#SVGID_21_);" d="M1627.6,354.5c0,0-2.7-2.3-6.9-5.8c-12.5-10.7-38-32.8-39.3-37.2
				c-1.7-5.8-23.3-36.9-23.3-36.9s42.3-5,56.3,6.5c2.5,2.1,4.1,4.7,4.4,7.9C1620.5,310.3,1627.6,354.5,1627.6,354.5z"/>
			<path style="opacity:0.25;fill:#FFFFFF;enable-background:new    ;" d="M1627.6,354.5c0,0-2.7-2.3-6.9-5.8
				c-1.6-26.1-4-57.5-6.2-65c-0.3-1-0.3-1.9-0.1-2.7c2.5,2.1,4.1,4.7,4.4,7.9C1620.5,310.3,1627.6,354.5,1627.6,354.5z"/>
			<path style="fill:#FFCCB0;" d="M1581.8,421.8c0,0,7.4-5.1,4.5-18c-2.2-9.7-7.1-22.3-17.9-36.2l28.1-59.5c0,0,4.8,14.9,18.6,31.7
				c10.6,12.9,26.7,26.8,50,35.8c0,0,30.1,53.3,17.1,63.3c-5.2,4-65.5,15.6-71.3,19.6C1596.4,468.6,1590.7,422.2,1581.8,421.8z"/>
			<path style="fill:#FFA983;" d="M1615.1,339.7c-5.3,14.2-15.9,41.1-28.9,64.1c-2.2-9.7-7.1-22.3-17.9-36.2l28.1-59.5
				C1596.5,308,1601.3,323,1615.1,339.7z"/>
			<path style="fill:#5260B6;" d="M1595.9,507c-8.2,24.3-14.9,194-14.9,194l-44.6-1.2l-8.6-0.2c0,0-5.2-121.8-6.3-174.3
				c-0.1-2.9-0.1-5.7,0.1-8.4c1.5-47.6,24.2-77.8,24.2-77.8s1.3,1,3.5,2.7c5.2,4.1,15.2,12.4,24.7,22.2c2.8,2.9,5.5,5.9,8.1,8.9
				C1592,484.6,1599.2,497.3,1595.9,507z"/>
			<path style="fill:#3D4B9A;" d="M1536.4,699.8l-8.6-0.2c0,0-5.2-121.8-6.3-174.3c-0.1-2.9-0.1-5.7,0.1-8.4
				c1.5-47.6,24.2-77.8,24.2-77.8s1.3,1,3.5,2.7c-37.1,60-12,157.2-13,222.1C1536.2,666.8,1536.8,684.2,1536.4,699.8z"/>
			<path style="fill:#5C6AC4;" d="M1794,593.3l-48.6,40.8l-34.8,15.6l-40.7,10.7l-18.9-3.9c0,0-6.1-54.4-26.4-78.6
				c-7.4-8.9-26.1-7.5-36.1-28.2c-1.2-2.5-2.3-5.4-3.3-8.8c-4.6-16.5-6.7-23.9-7.6-27.3c-0.8-2.8-0.8-2.8-0.8-2.8
				s-11.2-57.3-31.1-71.8c0,0,23.9-19.7,36.9-26.5c5.6-3,17.8,21,21.3,25.1c6.8,7.8,26.7-2.5,36-8.8l4.7-9.1
				c8.5-18.2,0.9-55.2,0.9-55.2s63.9-6.8,89.8,3.7s34.1,24.1,36.4,105.3C1774.1,554.7,1794,593.3,1794,593.3z"/>
			<path style="opacity:0.47;enable-background:new    ;" d="M1648.7,595.4c3.2,12.7,14.9,46.9,21.2,64.9l-18.9-3.9
				c0,0-6.1-54.4-26.4-78.6c-7.4-8.9-26.1-7.5-36.1-28.2c35.7,28.4,86.3,9.1,88.4,8.3C1675.1,558.9,1643.8,576,1648.7,595.4z"/>
			<path style="fill:#FFCCB0;" d="M1609.1,323.2c-3.9,7.2-9.2,2.8-9.2,2.8c-4.5,22.5-18.1,38-28.1,48.4c-1.7,1.8-3.4,3.4-4.9,4.8
				c-4.6,4.3-11.2,5.4-17,3.1c-49.6-19.4-55.8-85.5-55.8-85.5c2.2-18.7,21.3-35.4,21.3-35.4l20.2-3l29.7-4.4l31.8,47.3
				C1607.6,297.7,1613.9,314.4,1609.1,323.2z"/>
			<path style="fill:#FFA983;" d="M1571.7,374.4c-1.7,1.8-3.4,3.4-4.9,4.8c-4.6,4.3-11.2,5.4-17,3.1c-49.6-19.4-55.8-85.5-55.8-85.5
				c2.2-18.7,21.3-35.4,21.3-35.4l20.2-3c1.7,5.9,2.8,11.8,2.8,11.8s-12.9,29.5-20.8,37.6c-8,8-0.4,40.3,7.4,49.4
				C1535.1,369.4,1555.7,390.2,1571.7,374.4z"/>
			
				<linearGradient id="SVGID_22_" gradientUnits="userSpaceOnUse" x1="1450.0283" y1="790.1182" x2="1606.2278" y2="790.1182" gradientTransform="matrix(0.999 4.460042e-02 4.460042e-02 -0.999 -12.794 998.5472)">
				<stop  offset="0" style="stop-color:#000C47"/>
				<stop  offset="1" style="stop-color:#000C47"/>
			</linearGradient>
			<path style="fill:url(#SVGID_22_);" d="M1625.7,306.3c-0.8,0-1.5,0.1-2.2,0.1c-15.7,0.9-20.7,2.2-45.7-2.9
				c-24.5-5-47-17.9-47-17.9l-6.1,4.5l-19.3,3.9c0,0-9.8,21.9-12.6,28.2c-1.5,3.2-5.9,4.6-9.9,5.2l0,0c-3.7,0.6-7,0.4-7,0.4
				c-8-33.4-6.6-51.8,0.1-65.2c0,0,0,0,0-0.1c4.3-8.6,10.8-15.1,18.5-22.2c2-1.8,4-3.3,6.1-4.6c18.4-11.3,40.8-3.4,40.8-3.4
				s7.1-7.1,22.1-7.8s32.9,6.9,43.2,22.1C1630.8,282.6,1625.7,306.3,1625.7,306.3z"/>
			<path style="fill:#070A0C;" d="M1482.8,327.6L1482.8,327.6c-3.7,0.6-7,0.4-7,0.4c-8-33.4-6.6-51.8,0.1-65.2
				C1465.2,287.7,1482.8,327.6,1482.8,327.6z"/>
			<path style="opacity:0.25;fill:#FFFFFF;enable-background:new    ;" d="M1625.7,306.3c-0.8,0-1.5,0.1-2.2,0.1
				c-0.3-2-0.5-4.2-0.6-6.8c-0.6-27.4-20-60.6-43.7-66.6c-16.1-4.1-30.4,4.3-30.4,4.3s0,0-16.8-4.3c-8.8-2.3-20.8-1.1-31.3,2.9
				c18.4-11.3,40.8-3.4,40.8-3.4s7.1-7.1,22.1-7.8s32.9,6.9,43.2,22.1C1630.8,282.6,1625.7,306.3,1625.7,306.3z"/>
			
				<linearGradient id="SVGID_23_" gradientUnits="userSpaceOnUse" x1="1504.2784" y1="790.4976" x2="1605.9779" y2="790.4976" gradientTransform="matrix(0.999 4.460042e-02 4.460042e-02 -0.999 -12.794 998.5472)">
				<stop  offset="0" style="stop-color:#000C47"/>
				<stop  offset="1" style="stop-color:#000C47"/>
			</linearGradient>
			<path style="fill:url(#SVGID_23_);" d="M1627.4,267.8c0,0-1.7,12-12.9,15.9c0,0-0.1,0-0.2,0.1c-11.3,3.9-33.6,2.6-53.7-3.1
				s-36,9.6-36,9.6s0.2-10.9,4.4-19.1l0,0c0,0,0.1-0.1,0.1-0.2c0.4-0.7,0.7-1.3,1.1-1.9c0.7-1.1,1.6-2.2,2.5-3.1
				c1.9-1.9,4.4-3.2,7.3-3.5c0.4-0.1,0.9-0.1,1.3-0.1c16.4-0.5,35.2,7.2,47.5,8.1C1601.3,271.3,1610.8,271.2,1627.4,267.8z"/>
			
				<linearGradient id="SVGID_24_" gradientUnits="userSpaceOnUse" x1="1447.478" y1="740.8383" x2="1504.2788" y2="740.8383" gradientTransform="matrix(0.999 4.460042e-02 4.460042e-02 -0.999 -12.794 998.5472)">
				<stop  offset="0" style="stop-color:#000C47"/>
				<stop  offset="1" style="stop-color:#000C47"/>
			</linearGradient>
			<path style="fill:url(#SVGID_24_);" d="M1524.6,290.2c0,0-3.1,7.3-12,10.1c-6.8,2.1-10.9,19.9-18.2,30c-0.7,1-1.4,1.9-2.2,2.7
				c-0.9,1-1.9,1.8-2.9,2.5c-0.9,0.6-1.9,1.1-2.9,1.4c-13,3.8-19.5,26.7-19.5,26.7c-4.7-26.3,0.8-33.2,12.8-42.3
				c12-9,2.3-29.5,14.9-35.3c3.8-1.8,8.1-2.1,12.2-1.7l0,0c5.7,0.6,11.1,2.7,14.4,4.2C1523.4,289.5,1524.6,290.2,1524.6,290.2z"/>
			<path style="fill:#070A0C;" d="M1506.8,284.4c-15.1-0.5-14.2,20.5-15.3,26.1c-1.1,5.6-8.7,14.2-16.3,22.6
				c-7.6,8.4-8.2,30.5-8.2,30.5c-4.7-26.3,0.8-33.2,12.8-42.3c12-9,2.3-29.5,14.9-35.3C1498.5,284.3,1502.7,284,1506.8,284.4z"/>
			<polygon style="fill:#FFCCB0;" points="1596.7,609 1563.3,629.7 1528.8,656.5 1591.8,678.7 1632.7,637.1 			"/>
			<path style="fill:#5260B6;" d="M1723.5,576.8l-99.9,86.6c0,0-1.1-2.3-3-6.1c-6.5-12.7-22.2-41.3-34.3-46.2l74.3-79.9
				c0,0-1.5-67.6,15.8-116l0,0c10.7-30.1,28.7-52.8,58.9-47C1814,383.1,1723.5,576.8,1723.5,576.8z"/>
			
				<linearGradient id="SVGID_25_" gradientUnits="userSpaceOnUse" x1="1510.1765" y1="781.5172" x2="1616.9047" y2="781.5172" gradientTransform="matrix(0.999 4.460042e-02 4.460042e-02 -0.999 -12.794 998.5472)">
				<stop  offset="0" style="stop-color:#000C47"/>
				<stop  offset="1" style="stop-color:#000C47"/>
			</linearGradient>
			<path style="fill:url(#SVGID_25_);" d="M1636.9,300c-49.8,13.3-106.2-14.2-106.2-14.2s0.8-2.9,2.5-6.1
				c3.6-6.8,11.4-15.2,24.8-2.4C1577.8,296.2,1636.9,300,1636.9,300z"/>
			<path style="opacity:0.25;fill:#FFFFFF;enable-background:new    ;" d="M1524.6,290.2c0,0-3.1,7.3-12,10.1
				c-6.8,2.1-10.9,19.9-18.2,30c-0.5,0.5-1,1-1.4,1.4c7.7-12.9,13-33.6,15.7-33.5c3.4,0.2,13.5-6.4,13.5-8.2c0-0.4-0.4-1-0.9-1.6
				C1523.4,289.5,1524.6,290.2,1524.6,290.2z"/>
			<path style="opacity:0.25;fill:#FFFFFF;enable-background:new    ;" d="M1627.4,267.8c0,0-1.7,12-12.9,15.9
				c8.2-5.5,10.1-12.7,10.1-12.7s-16.4,3.7-30,3.4c-8.2-0.2-38.2-8.9-50.8-10.1c-4.1-0.4-10.3,0.4-13.6,4.7c0.7-1.1,1.6-2.2,2.5-3.1
				c1.9-1.9,4.4-3.2,7.3-3.5c0.4-0.1,0.9-0.1,1.3-0.1c16.4-0.5,35.2,7.2,47.5,8.1C1601.3,271.3,1610.8,271.2,1627.4,267.8z"/>
			<path style="opacity:0.25;fill:#FFFFFF;enable-background:new    ;" d="M1636.9,300c-13.1,1.9-62.9-6.4-76.8-16.6
				c-11.8-8.7-15.4-10.3-18.7-9.2c-1.9,0.6-4.8,1.5-8.2,5.6c3.6-6.8,11.4-15.2,24.8-2.4C1577.8,296.2,1636.9,300,1636.9,300z"/>
			<path style="fill:#FFFFFF;" d="M1644.7,381.2c0,0,0.3,0,0.9-0.1C1644.9,381.3,1644.7,381.2,1644.7,381.2z"/>
			<path style="fill:#070A0C;" d="M1733.6,842.5c-22.1,2.9-48.1-2.8-65.7-35.8c-36.2-68.1-17-150.3-17-150.3l6.2,1.8
				c9.8,2.1,12.8,2.1,12.8,2.1c-4.4,0.8-8.7,38.9-8.7,44.5c0,18.7,2,37.5,7.2,55.4c5.3,18.1,14,35,25.9,49.7
				C1700.9,818.1,1721.6,844.1,1733.6,842.5z"/>
		</g>
	</g>
	<g>
		<defs>
			<rect id="SVGID_26_" width="1920" height="1080"/>
		</defs>
		<clipPath id="SVGID_27_">
			<use xlink:href="#SVGID_26_"  style="overflow:visible;"/>
		</clipPath>
		<path style="clip-path:url(#SVGID_27_);fill:#2A3D00;" d="M1247.6,451.1c1.2,2.5,2.4,4.8,3.8,7.1c2.6,4.4,5.6,8.4,8.9,12.4
			c1.4,1.9,2.9,3.7,4.4,5.6c8.1,10,14.2,21.9,19.2,33.8c0.7,1.6,20.3,5.4,21.4,5.6c18.4,3.4,13.9,6.7,24-9
			c10.2-15.7,13.7-34.7,16.4-53.3c0.3-2.1,0.6-4.2,0.8-6.3c0.2-1.4,0.4-2.8,0.5-4.3c0.6-7.2,0.6-14.4-1.2-21.3
			c-3.6-13.9-10.8-27.9-21.5-37.8c-4-3.6-8.5-6.2-13.3-8.1c-1.4-0.5-2.8-1-4.2-1.3l-1.5,8.8c-2.9-2.5-6.3-4.6-9.8-6.3
			c-2.1-1-4.2-1.8-6.4-2.5c-8-2.5-16.2-2.7-22.7-0.1c-8.4,3.3-14,6.9-18.7,14.9C1236.5,407.9,1238.9,431.8,1247.6,451.1z"/>
	</g>
	<g>
		<defs>
			<rect id="SVGID_28_" width="1920" height="1080"/>
		</defs>
		<clipPath id="SVGID_29_">
			<use xlink:href="#SVGID_28_"  style="overflow:visible;"/>
		</clipPath>
		
			<linearGradient id="SVGID_30_" gradientUnits="userSpaceOnUse" x1="2109.8086" y1="486.6975" x2="2261.7014" y2="486.6975" gradientTransform="matrix(-1 0 0 -1 3495.7219 1080)">
			<stop  offset="0.1057" style="stop-color:#FFBD95"/>
			<stop  offset="0.6278" style="stop-color:#FF9A6A"/>
			<stop  offset="0.9923" style="stop-color:#F17954"/>
		</linearGradient>
		<path style="clip-path:url(#SVGID_29_);fill:url(#SVGID_30_);" d="M1234.5,602.9c4.8,8.9,50.3,21.4,62.9,24.6
			c4.9,1.3,33.2,77.9,37.4,80.9c5,3.6,40.6-86.5,47.6-92.8c7.2-6.2,2-12.9-3.7-20.4c-2.5-3.3-39.3-36.9-42.6-55.3
			c-0.8-4.4-0.7-8.9,0.1-13.3c0.9-5.8,2.8-11.5,4.6-17.2c0.7-2.3,1.5-4.6,2.1-6.9c-2.7-1.2-5.7-2.5-8.8-3.7
			c-16.7-6.8-37.9-14.1-52.4-20.7c3.1,1.4-1.7,34.5-2.5,38.8c-0.4,2.7-1.1,5.3-2,7.9c-1.1,4-2.6,7.9-4.4,11.5
			c-2.2,4.4-4.9,8.5-8.2,12.2C1254.8,559.4,1230.3,595,1234.5,602.9z"/>
	</g>
	<g>
		<defs>
			<rect id="SVGID_31_" width="1920" height="1080"/>
		</defs>
		<clipPath id="SVGID_32_">
			<use xlink:href="#SVGID_31_"  style="overflow:visible;"/>
		</clipPath>
		<path style="clip-path:url(#SVGID_32_);fill:#FF8E61;" d="M1272.8,536.5c32.5-2.2,52.2-6.4,63.3-9.8c0.9-5.8,2.8-11.5,4.6-17.2
			c-2.1-3.3-4.4-6.9-6.7-10.7c-16.7-6.8-37.9-14.1-52.4-20.7c3.1,1.4-1.7,34.5-2.5,38.8c-0.4,2.7-1.1,5.3-2,7.9
			C1276.1,528.9,1274.6,532.8,1272.8,536.5z"/>
	</g>
	<g>
		<defs>
			<rect id="SVGID_33_" width="1920" height="1080"/>
		</defs>
		<clipPath id="SVGID_34_">
			<use xlink:href="#SVGID_33_"  style="overflow:visible;"/>
		</clipPath>
		
			<linearGradient id="SVGID_35_" gradientUnits="userSpaceOnUse" x1="2108.7761" y1="610.4501" x2="2225.3027" y2="610.4501" gradientTransform="matrix(-1 0 0 -1 3495.7219 1080)">
			<stop  offset="0.1057" style="stop-color:#FFBD95"/>
			<stop  offset="0.6278" style="stop-color:#FF9A6A"/>
			<stop  offset="0.9923" style="stop-color:#F17954"/>
		</linearGradient>
		<path style="clip-path:url(#SVGID_34_);fill:url(#SVGID_35_);" d="M1274.1,479.3c4.8,4.8,9.4,4.8,9.4,4.8
			c5.4,20.9,57.3,41.1,57.3,41.1c0.7-0.3,1.4-0.7,2.2-1c46.6-21.7,44.2-99.9,43.8-109.4c-0.1-0.6-0.1-0.9-0.1-0.9h-70.2l-22.2,44.5
			c0,0,2-4-12.8-6.7C1266.7,449,1269.5,474.7,1274.1,479.3z"/>
	</g>
	<g>
		<defs>
			<rect id="SVGID_36_" width="1920" height="1080"/>
		</defs>
		<clipPath id="SVGID_37_">
			<use xlink:href="#SVGID_36_"  style="overflow:visible;"/>
		</clipPath>
		<path style="clip-path:url(#SVGID_37_);fill:#2A3D00;" d="M1268.3,447.8c-0.1,1.7-0.3,3.5,0.8,4.9c1.7,2.4,5.5,1.4,8.4,1.2
			c6.8-0.5,10.3,0.3,13.9,6c3.7,5.6,0.3,13.4,1.7,20c10.3,8.9,6.9-16.9,12.8-23.8c6.8-8,18.2-6.4,21.7-15.5c1.3-3.4,4-2.5,9.5-6.5
			c6.3-4.5,15.1-3.7,32,2.2c10.6,1.9,18.7-4,22.7-7.4c14.4-12.2,29.2-27.5,9.2-29.5c-12.8-1.2-21-8.2-29.9-16.7
			c-8-7.6-17.4-12.7-27.4-15.6c-17.6-4.9-37.1-2.7-53.5,6.5c-0.4,0.2-0.8,0.5-1.2,0.7c-2.8,1.7-5.2,3.6-7.2,5.5
			c-7.6,7.2-10.1,15.7-13.6,24.8C1263.5,417.2,1269.7,434.5,1268.3,447.8z"/>
	</g>
	<g>
		<defs>
			<rect id="SVGID_38_" width="1920" height="1080"/>
		</defs>
		<clipPath id="SVGID_39_">
			<use xlink:href="#SVGID_38_"  style="overflow:visible;"/>
		</clipPath>
		<path style="opacity:0.25;clip-path:url(#SVGID_39_);fill:#FFFFFF;enable-background:new    ;" d="M1247.6,451.1
			c1.2,2.5,2.4,4.8,3.8,7.1c2.6,4.4,5.6,8.4,8.9,12.4c-0.6-1.4-0.9-3.2-2-4.6c-26.1-35.7-6.6-76.6,5.1-84.1
			c7.2-4.7,14.2-3.6,18.4-2.1c2.7,1,4.3,2.1,4.3,2.1s0,0,9.4-5.1c2.7-1.4,6-3.2,10.3-5.6c9.3-5,24.5-5.3,37.9-4.2
			c-17.6-4.9-37.1-2.7-53.5,6.5c-0.4,0.2-0.8,0.5-1.2,0.7c-8-2.5-16.2-2.7-22.7-0.1c-8.4,3.3-14,6.9-18.7,14.9
			C1236.5,407.9,1238.9,431.8,1247.6,451.1z"/>
	</g>
	<g>
		<defs>
			<rect id="SVGID_40_" width="1920" height="1080"/>
		</defs>
		<clipPath id="SVGID_41_">
			<use xlink:href="#SVGID_40_"  style="overflow:visible;"/>
		</clipPath>
		<path style="clip-path:url(#SVGID_41_);fill:#5E8E3E;" d="M1410,575.1c0,0,41.8,34.4,53.8,91l6.9,25.3l-54.7,1.8l-45.4-2.6
			L1410,575.1z"/>
	</g>
	<g>
		<defs>
			<rect id="SVGID_42_" width="1920" height="1080"/>
		</defs>
		<clipPath id="SVGID_43_">
			<use xlink:href="#SVGID_42_"  style="overflow:visible;"/>
		</clipPath>
		<path style="clip-path:url(#SVGID_43_);fill:#95BF47;" d="M1402.4,831.5l-172.2,7.6l-13.1,0.6l-13.6-107.9l-2.3-18.5
			c0,0,0.9-1,2.3-3.1c0.8-1.1,1.6-2.5,2.6-4.2c5.3-9.4,12.7-28.2,11-57.9c-0.4-6.5-1.4-12.7-3-18.5c-4.5-16.7-13.3-30.4-21.5-40.4
			c-9.7-11.9-18.7-18.7-19.3-19.1l0,0c17.4-12.4,66.9-25.8,96.9-27.2c-7.1,2.1,8.2,30,24.6,36.6c28.9,11.6,49.2-8.8,48.1-25
			c49.5,7.2,67.2,20.5,67.2,20.5c-0.2,0.9,2,8.7,3.1,19.4C1424.1,694.2,1402.4,831.5,1402.4,831.5z"/>
	</g>
	<g>
		<defs>
			<rect id="SVGID_44_" width="1920" height="1080"/>
		</defs>
		<clipPath id="SVGID_45_">
			<use xlink:href="#SVGID_44_"  style="overflow:visible;"/>
		</clipPath>
		<path style="clip-path:url(#SVGID_45_);fill:#7DA237;" d="M1230.2,714.9v124.2l-13.1,0.6l-13.6-107.9l-2.3-18.5c0,0,0.9-1,2.3-3.1
			c0.8-1.1,1.6-2.5,2.6-4.2c5.3-9.4,12.7-28.2,11-57.9c-0.4-6.5-1.4-12.7-3-18.5C1229,643.9,1230.2,714.9,1230.2,714.9z"/>
	</g>
	<g>
		<defs>
			<rect id="SVGID_46_" width="1920" height="1080"/>
		</defs>
		<clipPath id="SVGID_47_">
			<use xlink:href="#SVGID_46_"  style="overflow:visible;"/>
		</clipPath>
		<polygon style="clip-path:url(#SVGID_47_);fill:#F2F6FA;" points="1918.9,791.2 1918.9,938.1 817.7,938.1 926.7,791.2 		"/>
	</g>
	<g>
		<defs>
			<rect id="SVGID_48_" width="1920" height="1080"/>
		</defs>
		<clipPath id="SVGID_49_">
			<use xlink:href="#SVGID_48_"  style="overflow:visible;"/>
		</clipPath>
		
			<linearGradient id="SVGID_50_" gradientUnits="userSpaceOnUse" x1="1173.8596" y1="292.1765" x2="1089.8479" y2="162.9276" gradientTransform="matrix(1 0 0 -1 0 1080)">
			<stop  offset="0" style="stop-color:#DAE3EA;stop-opacity:0.5"/>
			<stop  offset="0.8581" style="stop-color:#DAE3EA;stop-opacity:0"/>
		</linearGradient>
		<path style="clip-path:url(#SVGID_49_);fill:url(#SVGID_50_);" d="M1094.4,840.5c-8.9,9.5-42.5,36-24.6,50.2
			c8.8,6.9,21.4,5.7,31.9,6.6c14.7,1.2,29.4,2.9,44,3.8c3.1,0.2,6.4-0.3,8.6-2.5c1.4-1.5,2.2-3.5,2.8-5.4
			c4.6-13.4,13.9-24.3,18.5-37.6c2.3-6.5,7.7-20.8-0.2-25.6c-2.3-1.4-5.1-1.6-7.7-1.8c-10.7-0.8-21.3-1.7-32-2.7
			c-8.2-0.7-21.8-4.8-28.8,0.7c-3,2.3-5.1,5.5-7.4,8.4C1098,836.7,1096.2,838.6,1094.4,840.5z"/>
	</g>
	<g>
		<defs>
			<rect id="SVGID_51_" width="1920" height="1080"/>
		</defs>
		<clipPath id="SVGID_52_">
			<use xlink:href="#SVGID_51_"  style="overflow:visible;"/>
		</clipPath>
		
			<linearGradient id="SVGID_53_" gradientUnits="userSpaceOnUse" x1="1819.7482" y1="292.1588" x2="1735.7365" y2="162.91" gradientTransform="matrix(1 0 0 -1 0 1080)">
			<stop  offset="0" style="stop-color:#DAE3EA;stop-opacity:0.5"/>
			<stop  offset="0.8581" style="stop-color:#DAE3EA;stop-opacity:0"/>
		</linearGradient>
		<path style="clip-path:url(#SVGID_52_);fill:url(#SVGID_53_);" d="M1740.3,840.5c-8.9,9.5-42.5,36-24.6,50.2
			c8.8,6.9,21.4,5.7,31.9,6.6c14.7,1.2,29.4,2.9,44,3.8c3.1,0.2,6.4-0.3,8.6-2.5c1.4-1.5,2.2-3.5,2.8-5.4
			c4.6-13.4,13.9-24.3,18.5-37.6c2.3-6.5,7.7-20.8-0.2-25.6c-2.3-1.4-5.1-1.6-7.7-1.8c-10.7-0.8-21.3-1.7-32-2.7
			c-8.2-0.7-21.8-4.8-28.8,0.7c-3,2.3-5.1,5.5-7.4,8.4C1743.8,836.7,1742.1,838.6,1740.3,840.5z"/>
	</g>
	<g>
		<defs>
			<rect id="SVGID_54_" width="1920" height="1080"/>
		</defs>
		<clipPath id="SVGID_55_">
			<use xlink:href="#SVGID_54_"  style="overflow:visible;"/>
		</clipPath>
		
			<linearGradient id="SVGID_56_" gradientUnits="userSpaceOnUse" x1="1488.3701" y1="484.0656" x2="1456.8351" y2="53.4835" gradientTransform="matrix(1 0 0 -1 0 1080)">
			<stop  offset="0" style="stop-color:#DAE3EA;stop-opacity:0.5"/>
			<stop  offset="0.8581" style="stop-color:#DAE3EA;stop-opacity:0"/>
		</linearGradient>
		<path style="clip-path:url(#SVGID_55_);fill:url(#SVGID_56_);" d="M1872.1,791.2c-19.7,23.9-97.2,123.2-115,131.1
			c-11,4.9-256.3,0.4-271.9,0c-74.8-2-50.6,0.6-125.4-2.2c-53.4-2-209.8,9.6-254.5-6c-91.6-31.8,18.3-71.3,33.9-114.7
			c0.6-1.7,2-4.6,3.9-8.3L1872.1,791.2L1872.1,791.2z"/>
	</g>
	<g>
		<defs>
			<rect id="SVGID_57_" width="1920" height="1080"/>
		</defs>
		<clipPath id="SVGID_58_">
			<use xlink:href="#SVGID_57_"  style="overflow:visible;"/>
		</clipPath>
		
			<linearGradient id="SVGID_59_" gradientUnits="userSpaceOnUse" x1="1121.9183" y1="327.4" x2="1338.6" y2="327.4" gradientTransform="matrix(1 0 0 -1 0 1080)">
			<stop  offset="0" style="stop-color:#FF9A6A"/>
			<stop  offset="0.8943" style="stop-color:#FFBD95"/>
		</linearGradient>
		<path style="clip-path:url(#SVGID_58_);fill:url(#SVGID_59_);" d="M1338.6,795.1v31.4c0,0-190.9-6.2-207.5-32.9
			c-7-11.2-11.2-74.4-8.2-100.4c1.1-9,2.4-14.5,2.4-14.5l89.7,0.7l-1.4,24.3l-3.3,38.2C1247.1,769.4,1338.6,795.1,1338.6,795.1z"/>
	</g>
	<g>
		<defs>
			<rect id="SVGID_60_" width="1920" height="1080"/>
		</defs>
		<clipPath id="SVGID_61_">
			<use xlink:href="#SVGID_60_"  style="overflow:visible;"/>
		</clipPath>
		<path style="clip-path:url(#SVGID_61_);fill:#5E8E3E;" d="M1221.5,717.3c0,0-6.6-3.9-18-7.1c-11.5-3.2-27.8-5.8-47.1-3.1
			c-38.6,5.3-49.6,0.4-49.6,0.4c10-87.1,66.5-137.4,66.5-137.4l0,0c9.5,4,17.3,10.2,23.6,17.8
			C1231.7,630.5,1221.5,717.3,1221.5,717.3z"/>
	</g>
	<g>
		<defs>
			<rect id="SVGID_62_" width="1920" height="1080"/>
		</defs>
		<clipPath id="SVGID_63_">
			<use xlink:href="#SVGID_62_"  style="overflow:visible;"/>
		</clipPath>
		<path style="clip-path:url(#SVGID_63_);fill:#DAE3EA;" d="M1918.9,938.1H816c-5.5,0-10,4.5-10,10v28.7c0,5.5,4.5,10,10,10h1102.9
			V938.1z"/>
	</g>
	<g>
		<defs>
			<rect id="SVGID_64_" width="1920" height="1080"/>
		</defs>
		<clipPath id="SVGID_65_">
			<use xlink:href="#SVGID_64_"  style="overflow:visible;"/>
		</clipPath>
		<rect x="936.2" y="986.9" style="clip-path:url(#SVGID_65_);fill:#C8D3DB;" width="962.5" height="93.1"/>
	</g>
	<g>
		<defs>
			<rect id="SVGID_66_" width="1920" height="1080"/>
		</defs>
		<clipPath id="SVGID_67_">
			<use xlink:href="#SVGID_66_"  style="overflow:visible;"/>
		</clipPath>
		
			<linearGradient id="SVGID_68_" gradientUnits="userSpaceOnUse" x1="1417.45" y1="-98.1415" x2="1417.45" y2="205.7559" gradientTransform="matrix(1 0 0 -1 0 1080)">
			<stop  offset="0.3998" style="stop-color:#FFFFFF;stop-opacity:0"/>
			<stop  offset="0.4614" style="stop-color:#C4C4C4;stop-opacity:3.665884e-02"/>
			<stop  offset="0.5237" style="stop-color:#919191;stop-opacity:7.373141e-02"/>
			<stop  offset="0.5871" style="stop-color:#646464;stop-opacity:0.1115"/>
			<stop  offset="0.6505" style="stop-color:#404040;stop-opacity:0.1492"/>
			<stop  offset="0.7138" style="stop-color:#242424;stop-opacity:0.1869"/>
			<stop  offset="0.7771" style="stop-color:#101010;stop-opacity:0.2246"/>
			<stop  offset="0.8403" style="stop-color:#040404;stop-opacity:0.2623"/>
			<stop  offset="0.9037" style="stop-color:#000000;stop-opacity:0.3"/>
		</linearGradient>
		<rect x="936.2" y="986.9" style="clip-path:url(#SVGID_67_);fill:url(#SVGID_68_);" width="962.5" height="34.4"/>
	</g>
	<g>
		<defs>
			<rect id="SVGID_69_" width="1920" height="1080"/>
		</defs>
		<clipPath id="SVGID_70_">
			<use xlink:href="#SVGID_69_"  style="overflow:visible;"/>
		</clipPath>
		<g style="clip-path:url(#SVGID_70_);">
			<path style="fill:#F2F2F2;" d="M1594.1,837.2H1311c-5,0-9.3-3.4-10.4-8.3l-23.4-182.5c-1.5-6.7,3.5-13,10.4-13h336.9
				c7,0,12.1,6.7,10.3,13.5l-30.5,182.5C1603.1,834,1598.9,837.2,1594.1,837.2z"/>
			<path style="fill:#DAE3EA;" d="M1600.9,850.4h-296.6c-3.2,0-6.1-2.1-7.2-5.3l0,0c-2.1-5.5,1.7-11.5,7.2-11.5h296.6
				c5.9,0,9.7,6.8,6.9,12.4l0,0C1606.4,848.7,1603.8,850.4,1600.9,850.4z"/>
			<circle style="fill:#FFFFFF;" cx="1456.1" cy="738.3" r="25"/>
			<polygon style="opacity:0.35;fill:#FFFFFF;enable-background:new    ;" points="1346.8,833.7 1315.4,833.7 1452.3,633.4 
				1483.7,633.4 			"/>
			<polygon style="opacity:0.35;fill:#FFFFFF;enable-background:new    ;" points="1425.1,833.7 1364.6,833.7 1501.5,633.4 
				1562,633.4 			"/>
		</g>
	</g>
	<g>
		<defs>
			<rect id="SVGID_71_" width="1920" height="1080"/>
		</defs>
		<clipPath id="SVGID_72_">
			<use xlink:href="#SVGID_71_"  style="overflow:visible;"/>
		</clipPath>
		<g style="clip-path:url(#SVGID_72_);">
			<path style="fill:#FFFFFF;" d="M1190.9,763l-12.8,61.8c-1.2,5.5-4.4,10-8.6,12.7l0,0c-2.6,1.6-5.5,2.5-8.6,2.5h-29.1
				c-8.3,0-15.5-6.3-17.3-15.2l-1.8-8.5l-1.6-7.6l-7.6-36.7l-1.6-7.6l-0.3-1.5c-0.7-3.3,0.7-6.4,3-8c1.1-0.8,2.3-1.2,3.7-1.2h75.9
				c0.8,0,1.6,0.2,2.3,0.4C1189.7,755.4,1191.7,759.1,1190.9,763z"/>
			<g>
				<path style="fill:#95BF47;" d="M1164.2,781.3c0-0.2-0.2-0.4-0.4-0.4c-0.2,0-3.6-0.1-3.6-0.1s-2.9-2.8-3.2-3.1
					c-0.3-0.3-0.8-0.2-1.1-0.1c0,0-0.5,0.2-1.5,0.5c-0.2-0.5-0.4-1.1-0.7-1.7c-1-2-2.5-3-4.4-3l0,0c-0.1,0-0.3,0-0.4,0
					c-0.1-0.1-0.1-0.1-0.2-0.2c-0.8-0.8-1.8-1.3-3-1.2c-2.4,0.1-4.7,1.8-6.6,4.8c-1.3,2.1-2.4,4.8-2.6,6.9c-2.7,0.8-4.6,1.4-4.6,1.4
					c-1.4,0.4-1.4,0.5-1.6,1.8c-0.1,1-3.7,28.6-3.7,28.6l29.9,5.2l13-3.2C1169.6,817.3,1164.3,781.5,1164.2,781.3z M1153,778.5
					c-0.7,0.2-1.5,0.5-2.3,0.7c0-1.2-0.2-2.8-0.7-4.3C1151.7,775.3,1152.6,777.3,1153,778.5z M1149.1,779.7c-1.6,0.5-3.3,1-5,1.5
					c0.5-1.8,1.4-3.7,2.5-4.9c0.4-0.4,1-0.9,1.7-1.2C1149,776.5,1149.1,778.4,1149.1,779.7z M1145.9,773.5c0.6,0,1,0.1,1.4,0.4
					c-0.6,0.3-1.3,0.8-1.8,1.4c-1.5,1.6-2.6,4.1-3.1,6.5c-1.4,0.4-2.8,0.9-4.1,1.3C1139.1,779.3,1142.3,773.6,1145.9,773.5z"/>
				<path style="fill:#5E8E3E;" d="M1163.8,780.9c-0.2,0-3.6-0.1-3.6-0.1s-2.9-2.8-3.2-3.1c-0.1-0.1-0.3-0.2-0.4-0.2v43l13-3.2
					c0,0-5.3-35.8-5.3-36C1164.2,781,1164,780.9,1163.8,780.9z"/>
				<path style="fill:#FFFFFF;" d="M1149.4,787.5l-1.5,5.6c0,0-1.7-0.8-3.7-0.6c-2.9,0.2-3,2-2.9,2.5c0.2,2.5,6.8,3.1,7.2,9
					c0.3,4.6-2.5,7.8-6.4,8.1c-4.8,0.3-7.4-2.5-7.4-2.5l1-4.3c0,0,2.6,2,4.8,1.9c1.4-0.1,1.9-1.2,1.8-2c-0.2-3.3-5.6-3.1-5.9-8.5
					c-0.3-4.5,2.7-9.1,9.3-9.6C1148.1,786.9,1149.4,787.5,1149.4,787.5z"/>
			</g>
			<g>
				<path style="fill:#FFFFFF;" d="M1106.2,767.3l1.6,7.6c-10.1,0.4-18.1,8.8-18.1,19c0,10.5,8.5,19,19,19c2.4,0,4.6-0.4,6.7-1.3
					l1.6,7.6c-2.6,0.9-5.4,1.3-8.3,1.3c-14.7,0-26.6-12-26.6-26.6C1082,780,1092.7,768.5,1106.2,767.3z"/>
			</g>
			<path style="fill:#DAE3EA;" d="M1118,847.4h56.1c7.3,0,10.1-6.1,4-8.6c-1.2-0.5-2.6-0.7-4-0.7H1118c-1.4,0-2.8,0.3-4,0.8
				C1108,841.4,1110.8,847.4,1118,847.4z"/>
			<path style="fill:#DAE3EA;" d="M1186.7,754.2c-33.1,10.8-69.4,3.8-81.9,0.8c1.1-0.8,2.3-1.2,3.7-1.2h75.9
				C1185.2,753.8,1186,753.9,1186.7,754.2z"/>
			<path style="opacity:0.8;fill:#F2F2F2;enable-background:new    ;" d="M1148.1,759.9c0.4-4.4,0.4-8.9-1.5-12.5
				c-1.8-3.5-5.2-5.8-8.9-7.3c-3.7-1.6-7.9-2.4-12.4-3.7c-2.2-0.7-4.5-1.6-6.7-2.8s-4.4-2.9-6.2-5.2c-0.9-1.1-1.7-2.5-2.2-3.9
				c-0.4-1.4-0.9-2.8-1-4.5c-0.1-0.8,0-1.7,0.2-2.7c0.1-0.9,0.5-1.8,1-2.7c0.9-1.7,2.2-3,3.6-4c2.7-1.8,5.3-2.5,7.8-3.1
				c2.5-0.5,4.9-0.8,7.2-0.9c9.2-0.6,18.4,0.5,27,1.6l6.5,0.8c2.2,0.3,4.1,0.5,5.7,0.4c1.7-0.1,2.8-0.3,3.8-0.9
				c1-0.6,1.3-1.2,1.4-1.7c0.2-0.5-0.1-1.7-0.8-2.7c-0.7-1-1.8-1.9-3.4-2.6c-1.6-0.8-3.4-1.3-5.5-2c-2.2-0.7-4.4-1.5-6.5-2.4
				c-8.4-3.5-16.8-8.2-22.6-16.1c-2.8-3.9-4.5-8.9-4.1-13.6c0.3-4.7,1.8-8.9,3.4-13c-0.5,4.4-1.1,8.8-0.5,12.9
				c0.4,4.2,2.3,7.7,5.1,10.5c2.7,2.9,6.2,5.2,9.8,7c3.7,1.9,7.6,3.4,11.5,4.7c2,0.6,4,1.1,6,1.6c2.1,0.5,4.5,1.1,7,2.1
				c4.8,1.9,10.7,6.9,10.1,14.6c-0.2,1.9-0.9,3.8-1.9,5.3s-2.3,2.7-3.7,3.6c-2.7,1.8-6,2.6-8.7,2.7c-2.8,0.1-5.2-0.2-7.4-0.4
				l-6.6-0.8c-8.7-1.2-17-2.2-25.4-2.1c-2,0-4,0.1-5.8,0.4c-1.8,0.3-3.5,0.8-4.5,1.4c-1,0.7-1,0.8-1.2,1.8c-0.1,0.5,0.1,1.2,0.2,1.9
				c0.2,0.6,0.4,1.3,0.8,1.9c1.6,2.6,5,4.7,8.8,6.4s8.1,3.1,12.3,5.5c4,2.4,8,6,9.3,10.8C1150.6,751.1,1149.6,755.7,1148.1,759.9z"
				/>
			<path style="opacity:0.8;fill:#F2F2F2;enable-background:new    ;" d="M1159.7,627.6c-1.6,4.2-1.9,8-1.5,11.8
				c0.3,3.7,1.2,7.6,2.3,10.9c1.3,3.6,3.3,7.7,3.5,12.8s-2.3,10-6.2,12.3c1.3-4.3,1.3-8.2,0.3-11.5s-3.2-6.7-4.7-11
				c-1.6-4.6-2-9.2-1.1-14C1153,634.3,1155.7,629.7,1159.7,627.6z"/>
			<path style="fill:#C8D3DB;" d="M1118,847.4h11.1c-1.3,0-3.4-1.2-4.2-2.2c-0.5-0.8-0.7-2-0.3-2.9c0.2-0.5,0.7-0.9,1.2-1.1
				c2.1-1,4.8-1.3,7.1-1.6c4.8-0.7,9.7-1,14.6-1.2c2.8-0.1,5.7-0.2,8.6-0.3H1118c-1.4,0-2.8,0.3-4,0.8
				C1108,841.4,1110.8,847.4,1118,847.4z"/>
		</g>
	</g>
	<g>
		<defs>
			<rect id="SVGID_73_" width="1920" height="1080"/>
		</defs>
		<clipPath id="SVGID_74_">
			<use xlink:href="#SVGID_73_"  style="overflow:visible;"/>
		</clipPath>
		<g style="clip-path:url(#SVGID_74_);">
			<path style="fill:#5E8E3E;" d="M1825.3,714.5c-2.2,10.4-5,20.7-8.3,30.9c-0.8,2.6-7.3,29.1-6.6,29c-1.5,0.1-2.9,0.2-4.4,0.4
				c-5.3,0.5-10.5,0.9-15.9,0.4c-2.8-0.2-5.8-0.7-7.8-2.8c-1.5-1.6-2-3.8-2.4-5.9c-2.3-13.8-0.6-27.9-1.3-41.8c0-1-0.1-1.9-0.2-2.9
				c-0.9-13.3-3-26.5-7.1-39.2c-3.9-12.2-13.3-29.1-15.3-44.6c-1.3-9.6,0.3-18.7,7.7-25.9c8.4-8.1,24.4-9.7,35.3-6.7
				c12.4,3.5,21.5,16,25.9,27.4C1834.7,658.8,1830.8,688.1,1825.3,714.5z"/>
			<path style="opacity:0.35;fill:#FFFFFF;enable-background:new    ;" d="M1825.3,714.5c-2.2,10.4-5,20.7-8.3,30.9
				c-0.8,2.6-7.3,29.1-6.6,29c-1.5,0.1-2.9,0.2-4.4,0.4c0-0.3-0.1-0.6-0.1-0.9c-2.6-19.5,8-37.9,12.2-57.1c2.2-10.2,2.6-20.6,2.7-31
				c0.2-21,1.1-52.1-16.3-67.4c-8.4-7.5-21.4-9.4-31.6-4.6c-7.6,3.5-11.9,9.2-14.5,15.9c-1,2.7-1.8,5.5-2.4,8.4
				c-1.3-9.6,0.3-18.7,7.7-25.9c8.4-8.1,24.4-9.7,35.3-6.7c12.4,3.5,21.5,16,25.9,27.4C1834.7,658.8,1830.8,688.1,1825.3,714.5z"/>
			<path style="fill:#95BF47;" d="M1782.8,766.9c-0.1,1.6-0.1,3.2-0.3,4.8c-0.3,3-0.9,5.9-2.5,8.4c-8.7,1.4-17.7,1.2-26.2-1.4
				c5.7-12.1-1.7-27.6-8.6-37.5c-8.5-12.1-22.3-16.9-31.2-28.5c-2-2.6-3.7-5.6-4.9-8.7c-2.6-6.6-3-13.9,0-20.2
				c9.1-18.9,36-15.8,50.6-6C1787.8,696.3,1784,737.6,1782.8,766.9z"/>
			<path style="fill:#95BF47;" d="M1883.8,714.3c-3.8,6.8-9.7,12.2-16,16.9c-7.1,5.4-15.3,9.5-21.3,16.4
				c-6.4,7.4-11.2,16.1-14.5,25.1c-0.4,0.9-0.7,1.9-1,2.8c-0.2,0.7,0,0-0.7,0c-4.3,0-18.5,0.9-22.8,0.9c-1,0,0.5-17.3,0.7-19
				c2.9-19.1,10.2-36,18.6-53.2c5-10.2,15-17.9,25.6-21.7c2.4-0.9,4.9-1.6,7.5-2.1c10.6-2,22-0.4,26.4,11.2
				C1889.1,699.1,1887.6,707.5,1883.8,714.3z"/>
			<path style="fill:#D6EAAE;" d="M1792.3,778.9c2-10.9,3.5-22.1,4.7-33.2c1.2-11.2,1.9-22.4,2.3-33.6c0.3-11.2,0-22.5-0.8-33.7
				c-1-11.2-2.6-22.4-5.3-33.3c3.3,10.8,5.5,21.9,7.1,33.1c1.4,11.2,2.2,22.5,2.6,33.9c0.3,11.3,0.1,22.7-0.5,34
				c-0.6,11.4-1.5,22.6-3,34L1792.3,778.9z"/>
			<path style="fill:#D6EAAE;" d="M1812.6,776.4c1.7-6.9,4-13.1,6.7-19.3s5.9-12.1,9.5-17.8c1.7-2.9,3.8-5.6,5.7-8.3
				c2.1-2.6,4.1-5.3,6.4-7.7c4.4-5,9.5-9.4,14.6-13.5c-4.8,4.6-9.4,9.3-13.2,14.6c-2.1,2.5-3.7,5.4-5.6,8.1
				c-1.6,2.8-3.4,5.6-4.8,8.5c-3,5.8-5.5,11.8-7.5,18c-2,6.1-3.7,12.5-4.6,18.6L1812.6,776.4z"/>
			<path style="opacity:0.35;fill:#FFFFFF;enable-background:new    ;" d="M1883.8,714.3c-3.8,6.8-9.7,12.2-16,16.9
				c-7.1,5.4-15.3,9.5-21.3,16.4c-6.4,7.4-11.2,16.1-14.5,25.1c-0.2-16.4,13.2-33.8,25.5-43.1c5.3-4.1,11.4-7.4,15.7-12.6
				c7.4-8.9,7.5-23.9-1.4-31.4c-3.4-2.8-7.4-4.4-11.8-5.2c10.6-2,22-0.4,26.4,11.2C1889.1,699.1,1887.6,707.5,1883.8,714.3z"/>
			<path style="opacity:0.35;fill:#FFFFFF;enable-background:new    ;" d="M1782.8,766.9c-0.1,1.6-0.1,3.2-0.3,4.8c0,0,0,0,0-0.1
				c-0.8-1.5-0.8-3.3-0.9-5c-1.1-28,0.6-64.9-25.8-83c-9.4-6.4-21.9-8.1-32.6-4.4c-3.4,1.2-6.6,2.9-9,5.5c-2.3,2.6-3.5,5.9-4.2,9.3
				c-0.1,0.7-0.3,1.4-0.4,2.1c-0.2,1.7,0.1,5.1-0.4,7.7c-2.6-6.6-3-13.9,0-20.2c9.1-18.9,36-15.8,50.6-6
				C1787.8,696.3,1784,737.6,1782.8,766.9z"/>
			<path style="fill:#D6EAAE;" d="M1770.2,782.7c0.4-3.3,0.5-7.3,0.3-11c0-1.9-0.3-3.8-0.4-5.6l-0.7-5.6c-1.2-7.5-3.2-14.9-5.9-22
				c-2.8-7.1-6.2-14-10.5-20.4c-4.1-6.5-9.2-12.4-14.5-18.1c5.7,5.3,11.3,10.7,16,17c4.9,6.1,8.9,12.9,12.3,20s6.1,14.6,8,22.4
				l1.2,5.9c0.3,2,0.7,3.9,0.9,5.9c0.3,2,0.4,4,0.6,6c0.1,2.1,0.2,4,0.1,6.3L1770.2,782.7z"/>
			<polygon style="fill:#F2F2F2;" points="1738.2,765.8 1745.5,790.9 1845.9,790.9 1853.2,765.8 			"/>
			<polygon style="fill:#FFFFFF;" points="1751.4,790.9 1768.4,841.3 1823,841.3 1840,790.9 			"/>
			<polygon style="opacity:0.72;fill:#C8D3DB;" points="1738.2,765.8 1745.5,790.9 1751.4,790.9 1768.4,841.3 1788.2,841.3 
				1770.1,790.9 1763.3,790.9 1755.7,765.8 			"/>
		</g>
	</g>
	<g>
		<defs>
			<rect id="SVGID_75_" width="1920" height="1080"/>
		</defs>
		<clipPath id="SVGID_76_">
			<use xlink:href="#SVGID_75_"  style="overflow:visible;"/>
		</clipPath>
		<g style="clip-path:url(#SVGID_76_);">
			<g style="opacity:0.9;">
				<path style="opacity:0.85;fill:#CBE39D;enable-background:new    ;" d="M1459.1,542.7h-82c-5.7,0-10.3,4.8-10.3,10.8v38.3
					c0,5.9,4.6,10.8,10.3,10.8h50.7c5.8,4.3,15.7,10.2,27.6,11.8c0,0-3-5.8-4.3-11.8h8c5.7,0,10.3-4.8,10.3-10.8v-38.3
					C1469.5,547.5,1464.8,542.7,1459.1,542.7z M1396.5,579.4c-2.6,0-4.7-2.9-4.7-6.5s2.1-6.5,4.7-6.5s4.7,2.9,4.7,6.5
					S1399.2,579.4,1396.5,579.4z M1418.8,579.4c-2.6,0-4.7-2.9-4.7-6.5s2.1-6.5,4.7-6.5s4.7,2.9,4.7,6.5S1421.4,579.4,1418.8,579.4z
					 M1439.4,579.4c-2.6,0-4.7-2.9-4.7-6.5s2.1-6.5,4.7-6.5s4.7,2.9,4.7,6.5S1442,579.4,1439.4,579.4z"/>
			</g>
			<circle style="fill:#5C6AC4;" cx="1396.4" cy="572.8" r="6.5"/>
			<circle style="fill:#5C6AC4;" cx="1418.8" cy="572.8" r="6.5"/>
			<circle style="fill:#5C6AC4;" cx="1439.4" cy="572.8" r="6.5"/>
		</g>
	</g>
	<g>
		<defs>
			<rect id="SVGID_77_" width="1920" height="1080"/>
		</defs>
		<clipPath id="SVGID_78_">
			<use xlink:href="#SVGID_77_"  style="overflow:visible;"/>
		</clipPath>
		<g style="clip-path:url(#SVGID_78_);">
			<g style="opacity:0.85;">
				<path style="fill:#CBE39D;" d="M1247.1,709.5H969.8c-3.7,0-6.7-3-6.7-6.7v-111c0-3.7,3-6.7,6.7-6.7h277.3c3.7,0,6.7,3,6.7,6.7
					v111C1253.8,706.5,1250.8,709.5,1247.1,709.5z"/>
			</g>
			<path style="fill:#5C6AC4;" d="M1222.8,617.9h-185.2c-1.5,0-2.6-1.2-2.6-2.6v-4.6c0-1.5,1.2-2.6,2.6-2.6h185.2
				c1.5,0,2.6,1.2,2.6,2.6v4.6C1225.5,616.7,1224.3,617.9,1222.8,617.9z"/>
			<path style="fill:#5C6AC4;" d="M1112.9,635.3h-75.2c-1.5,0-2.6-1.2-2.6-2.6v-4.6c0-1.5,1.2-2.6,2.6-2.6h75.2
				c1.5,0,2.6,1.2,2.6,2.6v4.6C1115.5,634.2,1114.3,635.3,1112.9,635.3z"/>
			<path style="fill:#5C6AC4;" d="M1222.8,669.3h-185.2c-1.5,0-2.6-1.2-2.6-2.6V662c0-1.5,1.2-2.6,2.6-2.6h185.2
				c1.5,0,2.6,1.2,2.6,2.6v4.6C1225.5,668.1,1224.3,669.3,1222.8,669.3z"/>
			<path style="fill:#5C6AC4;" d="M1090.6,686.7h-52.9c-1.5,0-2.6-1.2-2.6-2.6v-4.6c0-1.5,1.2-2.6,2.6-2.6h52.9
				c1.5,0,2.6,1.2,2.6,2.6v4.6C1093.2,685.6,1092,686.7,1090.6,686.7z"/>
			<path style="fill:#5C6AC4;" d="M987.3,608.8v11.3c0,6.8,3.5,13.2,9.4,16.8l8.8,5.4l8.8-5.4c5.8-3.6,9.4-9.9,9.4-16.8v-11.3
				l-18.2-6.5L987.3,608.8z"/>
			<path style="opacity:0.85;fill:#CBE39D;enable-background:new    ;" d="M1003,628.1c-0.2,0.2-0.5,0.3-0.8,0.3s-0.6-0.1-0.8-0.3
				l-6.3-6.3c-0.6-0.6-0.6-1.7,0-2.4l0.8-0.8c0.6-0.6,1.7-0.6,2.4,0l3.9,3.9l10.6-10.6c0.6-0.6,1.7-0.6,2.4,0l0.8,0.8
				c0.6,0.6,0.6,1.7,0,2.4L1003,628.1z"/>
			<path style="fill:#5C6AC4;" d="M987.3,661.3V673c0,6.8,3.5,13.1,9.3,16.7l8.9,5.6l8.9-5.6c5.8-3.6,9.3-9.9,9.3-16.7v-11.7
				l-18.2-6.6L987.3,661.3z"/>
			<path style="opacity:0.85;fill:#CBE39D;enable-background:new    ;" d="M1003,680.8c-0.2,0.2-0.5,0.3-0.8,0.3s-0.6-0.1-0.8-0.3
				l-6.3-6.3c-0.6-0.6-0.6-1.7,0-2.4l0.8-0.8c0.6-0.6,1.7-0.6,2.4,0l3.9,3.9l10.6-10.6c0.6-0.6,1.7-0.6,2.4,0l0.8,0.8
				c0.6,0.6,0.6,1.7,0,2.4L1003,680.8z"/>
		</g>
	</g>
	<g>
		<defs>
			<rect id="SVGID_79_" width="1920" height="1080"/>
		</defs>
		<clipPath id="SVGID_80_">
			<use xlink:href="#SVGID_79_"  style="overflow:visible;"/>
		</clipPath>
		<g style="clip-path:url(#SVGID_80_);">
			<g style="opacity:0.85;">
				<path style="fill:#CBE39D;" d="M1799.9,617.9h-260c-3.7,0-6.7-3-6.7-6.7v-83.6c0-3.7,3-6.7,6.7-6.7h260c3.7,0,6.7,3,6.7,6.7
					v83.6C1806.5,614.9,1803.6,617.9,1799.9,617.9z"/>
			</g>
			<path style="fill:#5C6AC4;" d="M1609.9,596.2h-44.1c-2.5,0-4.5-2-4.5-4.5v-44.1c0-2.5,2-4.5,4.5-4.5h44.1c2.5,0,4.5,2,4.5,4.5
				v44.1C1614.4,594.2,1612.4,596.2,1609.9,596.2z"/>
			<path style="fill:#5C6AC4;" d="M1689.4,564.6h-55.7c-1.8,0-3.2-1.4-3.2-3.2v-8c0-1.8,1.4-3.2,3.2-3.2h55.7c1.8,0,3.2,1.4,3.2,3.2
				v8C1692.6,563.1,1691.1,564.6,1689.4,564.6z"/>
			<path style="fill:#5C6AC4;" d="M1771.5,589.8h-137.8c-1.8,0-3.2-1.4-3.2-3.2v-8c0-1.8,1.4-3.2,3.2-3.2h137.8
				c1.8,0,3.2,1.4,3.2,3.2v8C1774.7,588.4,1773.3,589.8,1771.5,589.8z"/>
			<g style="opacity:0.85;">
				<g>
					<path style="fill:#CBE39D;" d="M1588.8,566.7v-9.5c2,0.3,3.9,1.2,5.6,2.4c0.3,0.2,0.7,0.3,1.1,0.3c1.3,0,2.3-1,2.3-2.3
						c0-0.5-0.2-1.1-0.6-1.5c-2.4-2-5.3-3.2-8.4-3.4v-3.2c0-0.9-0.7-1.6-1.6-1.6c0,0,0,0-0.1,0c-0.9,0-1.7,0.7-1.7,1.6v3.1
						c-6,0.4-10.2,4.2-10.2,9.1c0,6.1,5.2,7.8,10.2,9.1v10.8c-2.6-0.4-5.1-1.4-7.1-3.1c-0.4-0.3-0.9-0.5-1.3-0.5
						c-1.2,0.1-2.2,1.1-2.2,2.4c0,0.5,0.2,1.1,0.6,1.5c2.8,2.5,6.3,3.9,10.1,4.1v3c0,0,0,0,0,0.1c0,0.9,0.8,1.6,1.7,1.6
						c0.9,0,1.6-0.7,1.6-1.6v-3c7.3-0.5,10.3-4.9,10.3-9.7C1599.1,569.9,1593.7,568,1588.8,566.7z M1585.4,565.8
						c-2.9-0.9-5.2-1.7-5.2-4.2s2.1-4.3,5.2-4.5V565.8z M1588.8,581.8V572c3,0.9,5.4,2,5.4,4.8
						C1594.1,578.9,1592.7,581.3,1588.8,581.8z"/>
				</g>
			</g>
		</g>
	</g>
</g>
</svg>
