<?xml version="1.0" encoding="utf-8"?>
<!-- Generator: Adobe Illustrator 24.1.2, SVG Export Plug-In . SVG Version: 6.00 Build 0)  -->
<svg version="1.1" id="Layer_1" xmlns="http://www.w3.org/2000/svg" xmlns:xlink="http://www.w3.org/1999/xlink" x="0px" y="0px"
	 viewBox="0 0 1920 1080" style="enable-background:new 0 0 1920 1080;" xml:space="preserve">
<style type="text/css">
	.st0{fill:#D9F1FC;}
	.st1{fill:#E1E8EF;}
	.st2{fill:#F2F6FA;}
	.st3{fill:#D1DCE5;}
	.st4{fill:#5C6AC4;}
	.st5{fill:#F5B53F;}
	.st6{fill:#5E8E3E;}
	.st7{fill:#95BF47;}
	.st8{fill:url(#SVGID_1_);}
	.st9{fill:#101519;}
	.st10{fill:#202932;}
	.st11{fill:#070A0C;}
	.st12{opacity:0.25;fill:#FFFFFF;enable-background:new    ;}
	.st13{fill:url(#SVGID_2_);}
	.st14{fill:#FFCCB0;}
	.st15{fill:#FFA983;}
	.st16{fill:#5260B6;}
	.st17{fill:#3D4B9A;}
	.st18{opacity:0.47;enable-background:new    ;}
	.st19{fill:url(#SVGID_3_);}
	.st20{fill:url(#SVGID_4_);}
	.st21{fill:url(#SVGID_5_);}
	.st22{fill:url(#SVGID_6_);}
	.st23{fill:#FFFFFF;}
	.st24{fill:#2A3D00;}
	.st25{fill:url(#SVGID_7_);}
	.st26{fill:#FF8E61;}
	.st27{fill:url(#SVGID_8_);}
	.st28{fill:#7DA237;}
	.st29{fill:url(#SVGID_9_);}
	.st30{fill:url(#SVGID_10_);}
	.st31{fill:url(#SVGID_11_);}
	.st32{fill:url(#SVGID_12_);}
	.st33{fill:#DAE3EA;}
	.st34{fill:#C8D3DB;}
	.st35{fill:url(#SVGID_13_);}
	.st36{fill:#F2F2F2;}
	.st37{opacity:0.35;fill:#FFFFFF;enable-background:new    ;}
	.st38{opacity:0.8;fill:#F2F2F2;enable-background:new    ;}
	.st39{fill:none;stroke:#E6E6E6;stroke-miterlimit:10;}
	.st40{fill:#D6EAAE;}
	.st41{opacity:0.9;}
	.st42{opacity:0.85;fill:#CBE39D;enable-background:new    ;}
	.st43{opacity:0.85;}
	.st44{fill:#CBE39D;}
	.st45{display:none;opacity:0.75;}
	.st46{display:inline;fill:url(#SVGID_14_);}
	.st47{display:inline;fill:url(#SVGID_15_);}
	.st48{display:inline;fill:url(#SVGID_16_);}
</style>
<g>
	<path class="st0" d="M1593.1,811.5c-4.6,41.7-19.5,80.3-47.3,109.9c-22.5,23.9-47.4,41.9-74,55.3c-10.2,5.2-20.7,9.7-31.4,13.6
		c-1.5,0.5-3,1.1-4.4,1.6c-45.1,15.7-93.4,20.7-140.8,20.6c-67.5-0.1-140.8-12.6-212.8-20.3c-6.2-0.7-12.5-1.3-18.7-1.9
		c-39.3-3.7-78-5.5-115.1-2.6c-10.5,0.8-21.4,1.7-32.4,2.6c-8.1,0.6-16.3,1.3-24.6,1.9l0,0c-118.7,8.9-259.8,16.8-379.7,1.8
		c-1.3-0.2-2.6-0.3-3.9-0.5c-2.9-0.4-5.8-0.9-8.7-1.5c-2.8-0.5-5.5-1.1-8.2-1.7c-84.5-19.9-140.4-93.1-159-178.8
		c-9.8-45.2-9.3-93.9,2.8-140.1c14.4-54.8,46.6-103.4,88.7-136.3c44.7-34.9,103.6-36,146.3-73.5c22.3-19.6,29.6-47.1,34.1-76
		c2-12.8,3.4-25.9,5.4-38.7c3.4-22,9.1-43.6,17.1-64c20.9-53.9,57.2-100.1,105.9-125.4c69.6-36.2,157-24.1,227.8,1.9
		c4,1.5,8,3,11.9,4.6c7.5,3,15,6.2,22.5,9.5c53.1,23.5,105.7,51.7,163.6,44.8c1.4-0.2,2.9-0.4,4.3-0.6c25.4-3.6,50.2-11.6,75-20.1
		c17.8-6.1,35.6-12.3,53.5-17.2c17.2-4.7,34.5-8.1,52.2-9c41.4-2,87.1,4.6,125.5,26.5c8.9,5,17.3,10.9,25.3,17.6
		c28,23.8,50.7,65.5,48.9,107.8c-1.8,41.2-22.6,76.1-33.7,114c-11,37.5-15.1,74.2,1.7,109.7c19.7,41.5,46.6,76.4,62.8,120.8
		C1590.5,714.1,1598.3,764.7,1593.1,811.5z"/>
	<path class="st1" d="M1593.1,811.5c-4.6,41.7-19.5,80.3-47.3,109.9c-31.1,33.1-67.1,54.9-105.4,68.9c-1.5,0.5-3,1.1-4.4,1.6
		c-95,0.2-217.2,0.3-353.6,0.3c-61.2,0-125.1,0-190.8,0l0,0c-127.3,0-260.9-0.1-392.2-0.2c-2.8-0.5-5.5-1.1-8.2-1.7
		c-84.5-19.9-140.4-93.1-159-178.8c-9.8-45.2-9.3-93.9,2.8-140.1c14.4-54.8,46.6-103.4,88.7-136.3c44.7-34.9,103.6-36,146.3-73.5
		c22.3-19.6,29.6-47.1,34.1-76c2-12.8,3.4-25.9,5.4-38.7c3.4-22,9.1-43.6,17.1-64c20.9-53.9,57.2-100.1,105.9-125.4
		c69.6-36.2,157-24.1,227.8,1.9c4,1.5,8,3,11.9,4.6c7.5,3,15,6.2,22.5,9.5c53.1,23.5,105.7,51.7,163.6,44.8c1.4-0.2,2.9-0.4,4.3-0.6
		c25.4-3.6,50.2-11.6,75-20.1c17.8-6.1,35.6-12.3,53.5-17.2c17.2-4.7,34.5-8.1,52.2-9c41.4-2,87.1,4.6,125.5,26.5
		c8.9,5,17.3,10.9,25.3,17.6c28,23.8,50.7,65.5,48.9,107.8c-1.8,41.2-22.6,76.1-33.7,114c-11,37.5-15.1,74.2,1.7,109.7
		c19.7,41.5,46.6,76.4,62.8,120.8C1590.5,714.1,1598.3,764.7,1593.1,811.5z"/>
	<path class="st2" d="M1468.7,197.9v613.3H1291V180.5c17.2-4.7,34.5-8.1,52.2-9C1384.6,169.5,1430.3,176.1,1468.7,197.9z"/>
	<path class="st2" d="M1237.4,197.7v613.6h-75V217.7C1187.8,214.2,1212.6,206.1,1237.4,197.7z"/>
	<path class="st3" d="M994.5,173.5v637.7H972V164C979.5,167,987,170.2,994.5,173.5z"/>
	<path class="st3" d="M609.4,346.9c3.4-22,9.1-43.6,17.1-64v528.3H604V385.6C606,372.8,607.4,359.7,609.4,346.9z"/>
	<path class="st3" d="M1593.1,811.5c-4.6,41.7-19.5,80.3-47.3,109.9c-31.1,33.1-67.1,54.9-105.4,68.9H491.2
		c-84.5-19.9-140.4-93.1-159-178.8L1593.1,811.5L1593.1,811.5z"/>
	<g>
		<rect x="508.1" y="67.5" class="st3" width="622.5" height="385.5"/>
		<rect x="520.2" y="75" class="st2" width="598.1" height="370.4"/>
		<rect x="543.9" y="108" class="st4" width="28.3" height="28.3"/>
		<rect x="590.3" y="108" class="st3" width="114.3" height="8.1"/>
		<rect x="543.9" y="191" class="st4" width="54.1" height="28.3"/>
		<rect x="615.2" y="191" class="st3" width="91.8" height="28.3"/>
		<rect x="543.9" y="239.3" class="st4" width="54.1" height="28.3"/>
		<rect x="615.2" y="239.3" class="st3" width="91.8" height="28.3"/>
		<rect x="952.5" y="312.6" class="st4" width="54.1" height="28.3"/>
		<rect x="952.5" y="351.7" class="st3" width="91.8" height="28.3"/>
		<rect x="543.9" y="396.6" class="st4" width="54.1" height="28.3"/>
		<rect x="615.2" y="396.6" class="st3" width="91.8" height="28.3"/>
		<rect x="590.3" y="125.9" class="st3" width="43.7" height="8.1"/>
		<rect x="543.9" y="281.2" class="st3" width="114.3" height="8.1"/>
		<rect x="543.9" y="299.1" class="st3" width="43.7" height="8.1"/>
		<rect x="748.3" y="206.3" class="st3" width="114.3" height="8.1"/>
		<rect x="748.3" y="224.3" class="st3" width="43.7" height="8.1"/>
		<rect x="956.2" y="116.9" class="st3" width="99" height="8.1"/>
		<rect x="956.2" y="134.8" class="st3" width="37.8" height="8.1"/>
		<rect x="748.3" y="334.2" class="st3" width="114.3" height="8.1"/>
		<rect x="748.3" y="352.1" class="st3" width="43.7" height="8.1"/>
		<rect x="543.9" y="353.8" class="st3" width="114.3" height="8.1"/>
		<rect x="543.9" y="371.7" class="st3" width="43.7" height="8.1"/>
		<g>
			<path class="st3" d="M768.6,129.2c-6.7,0.1-11.9,0.2-18.7,0.4c-0.2,0-0.5,0-0.6-0.2c-0.1-0.1-0.2-0.3-0.2-0.5
				c-0.9-4.3-0.9-8.7-0.8-13c0-1.6-0.1-3.3,0.4-4.9c0.2-0.8,0.9-1.7,1.7-1.5c0.5,0.1,0.8,0.5,1.1,0.9c1,1.5,1.9,3.2,3,4.7
				c2.3,3.1,5.9,5.1,9.6,6.1c1.3,0.3,2.6,0.6,3.7,1.2c1,0.6,1.9,1.5,2.9,2c1.2,0.6,4.8,3.2,4.8,3.2
				C772.4,128.8,770,129.2,768.6,129.2z"/>
			<path class="st3" d="M808.4,129.2c-6.7,0.1-11.9,0.2-18.7,0.4c-0.2,0-0.5,0-0.6-0.2c-0.1-0.1-0.2-0.3-0.2-0.5
				c-0.9-4.3-0.9-8.7-0.8-13c0-1.6-0.1-3.3,0.4-4.9c0.2-0.8,0.9-1.7,1.7-1.5c0.5,0.1,0.8,0.5,1.1,0.9c1,1.5,1.9,3.2,3,4.7
				c2.3,3.1,5.9,5.1,9.6,6.1c1.3,0.3,2.6,0.6,3.7,1.2c1,0.6,1.9,1.5,2.9,2c1.2,0.6,4.8,3.2,4.8,3.2
				C812.2,128.8,809.7,129.2,808.4,129.2z"/>
			<path class="st3" d="M846.2,129.2c-6.7,0.1-11.9,0.2-18.7,0.4c-0.2,0-0.5,0-0.6-0.2c-0.1-0.1-0.2-0.3-0.2-0.5
				c-0.9-4.3-0.9-8.7-0.8-13c0-1.6-0.1-3.3,0.4-4.9c0.2-0.8,0.9-1.7,1.7-1.5c0.5,0.1,0.8,0.5,1.1,0.9c1,1.5,1.9,3.2,3,4.7
				c2.3,3.1,5.9,5.1,9.6,6.1c1.3,0.3,2.6,0.6,3.7,1.2c1,0.6,1.9,1.5,2.9,2c1.2,0.6,4.8,3.2,4.8,3.2
				C850,128.8,847.6,129.2,846.2,129.2z"/>
			<path class="st3" d="M768.6,169.9c-6.7,0.1-11.9,0.2-18.7,0.4c-0.2,0-0.5,0-0.6-0.2c-0.1-0.1-0.2-0.3-0.2-0.5
				c-0.9-4.3-0.9-8.7-0.8-13c0-1.6-0.1-3.3,0.4-4.9c0.2-0.8,0.9-1.7,1.7-1.5c0.5,0.1,0.8,0.5,1.1,0.9c1,1.5,1.9,3.2,3,4.7
				c2.3,3.1,5.9,5.1,9.6,6.1c1.3,0.3,2.6,0.6,3.7,1.2c1,0.6,1.9,1.5,2.9,2c1.2,0.6,4.8,3.2,4.8,3.2
				C772.4,169.5,770,169.9,768.6,169.9z"/>
			<path class="st3" d="M808.3,170c-6.7,0.1-11.9,0.2-18.7,0.4c-0.2,0-0.5,0-0.6-0.2c-0.1-0.1-0.2-0.3-0.2-0.5
				c-0.9-4.3-0.9-8.7-0.8-13c0-1.6-0.1-3.3,0.4-4.9c0.2-0.8,0.9-1.7,1.7-1.5c0.5,0.1,0.8,0.5,1.1,0.9c1,1.5,1.9,3.2,3,4.7
				c2.3,3.1,5.9,5.1,9.6,6.1c1.3,0.3,2.6,0.6,3.7,1.2c1,0.6,1.9,1.5,2.9,2c1.2,0.6,4.8,3.2,4.8,3.2C812,169.6,809.6,170,808.3,170z"
				/>
			<path class="st3" d="M846.1,170c-6.7,0.1-11.9,0.2-18.7,0.4c-0.2,0-0.5,0-0.6-0.2c-0.1-0.1-0.2-0.3-0.2-0.5
				c-0.9-4.3-0.9-8.7-0.8-13c0-1.6-0.1-3.3,0.4-4.9c0.2-0.8,0.9-1.7,1.7-1.5c0.5,0.1,0.8,0.5,1.1,0.9c1,1.5,1.9,3.2,3,4.7
				c2.3,3.1,5.9,5.1,9.6,6.1c1.3,0.3,2.6,0.6,3.7,1.2c1,0.6,1.9,1.5,2.9,2c1.2,0.6,4.8,3.2,4.8,3.2
				C849.9,169.6,847.4,169.9,846.1,170z"/>
			<path class="st3" d="M882,129.2c-6.7,0.1-11.9,0.2-18.7,0.4c-0.2,0-0.5,0-0.6-0.2c-0.1-0.1-0.2-0.3-0.2-0.5
				c-0.9-4.3-0.9-8.7-0.8-13c0-1.6-0.1-3.3,0.4-4.9c0.2-0.8,0.9-1.7,1.7-1.5c0.5,0.1,0.8,0.5,1.1,0.9c1,1.5,1.9,3.2,3,4.7
				c2.3,3.1,5.9,5.1,9.6,6.1c1.3,0.3,2.6,0.6,3.7,1.2c1,0.6,1.9,1.5,2.9,2c1.2,0.6,4.8,3.2,4.8,3.2
				C885.8,128.8,883.4,129.2,882,129.2z"/>
			<path class="st3" d="M916.6,129.2c-6.7,0.1-11.9,0.2-18.7,0.4c-0.2,0-0.5,0-0.6-0.2c-0.1-0.1-0.2-0.3-0.2-0.5
				c-0.9-4.3-0.9-8.7-0.8-13c0-1.6-0.1-3.3,0.4-4.9c0.2-0.8,0.9-1.7,1.7-1.5c0.5,0.1,0.8,0.5,1.1,0.9c1,1.5,1.9,3.2,3,4.7
				c2.3,3.1,5.9,5.1,9.6,6.1c1.3,0.3,2.6,0.6,3.7,1.2c1,0.6,1.9,1.5,2.9,2c1.2,0.6,4.8,3.2,4.8,3.2
				C920.3,128.8,917.9,129.2,916.6,129.2z"/>
			<g>
				<path class="st5" d="M775.5,127.7h-22.3c-3.1-5-4.7-10.7-4.7-16.5v-8.9h21l0.5,9.1c0.3,5.6,2.1,11,5.1,15.7L775.5,127.7z"/>
				<path class="st6" d="M815.2,127.7h-22.3c-3.1-5-4.7-10.7-4.7-16.5v-8.9h21l0.5,9.1c0.3,5.6,2,11,5.1,15.7L815.2,127.7z"/>
				<path class="st7" d="M853,127.7h-22.3c-3.1-5-4.7-10.7-4.7-16.5v-8.9h21l0.5,9.1c0.3,5.6,2,11,5.1,15.7L853,127.7z"/>
				<path class="st7" d="M775.5,168.4h-22.3c-3.1-5-4.7-10.7-4.7-16.5V143h21l0.5,9.1c0.3,5.6,2.1,11,5.1,15.7L775.5,168.4z"/>
				<path class="st5" d="M815.2,168.4h-22.3c-3.1-5-4.7-10.7-4.7-16.5V143h21l0.5,9.1c0.3,5.6,2,11,5.1,15.7L815.2,168.4z"/>
				<path class="st6" d="M853,168.4h-22.3c-3.1-5-4.7-10.7-4.7-16.5V143h21l0.5,9.1c0.3,5.6,2,11,5.1,15.7L853,168.4z"/>
				<path class="st5" d="M888.8,127.7h-22.3c-3.1-5-4.7-10.7-4.7-16.5v-8.9h21l0.5,9.1c0.3,5.6,2,11,5.1,15.7L888.8,127.7z"/>
				<path class="st6" d="M923.5,127.7h-22.3c-3.1-5-4.7-10.7-4.7-16.5v-8.9h21l0.5,9.1c0.3,5.6,2.1,11,5.1,15.7L923.5,127.7z"/>
			</g>
		</g>
		<g>
			<path class="st3" d="M974.1,225.1c-6.7,0.1-11.9,0.2-18.7,0.4c-0.2,0-0.5,0-0.6-0.2c-0.1-0.1-0.2-0.3-0.2-0.5
				c-0.9-4.3-0.9-8.7-0.8-13c0-1.6-0.1-3.3,0.4-4.9c0.2-0.8,0.9-1.7,1.7-1.5c0.5,0.1,0.8,0.5,1.1,0.9c1,1.5,1.9,3.2,3,4.7
				c2.3,3.1,5.9,5.1,9.6,6.1c1.3,0.3,2.6,0.6,3.7,1.2c1,0.6,1.9,1.5,2.9,2c1.2,0.6,4.8,3.2,4.8,3.2
				C977.9,224.7,975.5,225.1,974.1,225.1z"/>
			<path class="st3" d="M1013.9,225.1c-6.7,0.1-11.9,0.2-18.7,0.4c-0.2,0-0.5,0-0.6-0.2c-0.1-0.1-0.2-0.3-0.2-0.5
				c-0.9-4.3-0.9-8.7-0.8-13c0-1.6-0.1-3.3,0.4-4.9c0.2-0.8,0.9-1.7,1.7-1.5c0.5,0.1,0.8,0.5,1.1,0.9c1,1.5,1.9,3.2,3,4.7
				c2.3,3.1,5.9,5.1,9.6,6.1c1.3,0.3,2.6,0.6,3.7,1.2c1,0.6,1.9,1.5,2.9,2c1.2,0.6,4.8,3.2,4.8,3.2
				C1017.7,224.7,1015.3,225.1,1013.9,225.1z"/>
			<path class="st3" d="M1051.8,225.1c-6.7,0.1-11.9,0.2-18.7,0.4c-0.2,0-0.5,0-0.6-0.2c-0.1-0.1-0.2-0.3-0.2-0.5
				c-0.9-4.3-0.9-8.7-0.8-13c0-1.6-0.1-3.3,0.4-4.9c0.2-0.8,0.9-1.7,1.7-1.5c0.5,0.1,0.8,0.5,1.1,0.9c1,1.5,1.9,3.2,3,4.7
				c2.3,3.1,5.9,5.1,9.6,6.1c1.3,0.3,2.6,0.6,3.7,1.2c1,0.6,1.9,1.5,2.9,2c1.2,0.6,4.8,3.2,4.8,3.2
				C1055.5,224.7,1053.1,225.1,1051.8,225.1z"/>
			<path class="st3" d="M974.1,265.9c-6.7,0.1-11.9,0.2-18.7,0.4c-0.2,0-0.5,0-0.6-0.2c-0.1-0.1-0.2-0.3-0.2-0.5
				c-0.9-4.3-0.9-8.7-0.8-13c0-1.6-0.1-3.3,0.4-4.9c0.2-0.8,0.9-1.7,1.7-1.5c0.5,0.1,0.8,0.5,1.1,0.9c1,1.5,1.9,3.2,3,4.7
				c2.3,3.1,5.9,5.1,9.6,6.1c1.3,0.3,2.6,0.6,3.7,1.2c1,0.6,1.9,1.5,2.9,2c1.2,0.6,4.8,3.2,4.8,3.2
				C977.9,265.5,975.5,265.9,974.1,265.9z"/>
			<path class="st3" d="M1013.8,265.9c-6.7,0.1-11.9,0.2-18.7,0.4c-0.2,0-0.5,0-0.6-0.2c-0.1-0.1-0.2-0.3-0.2-0.5
				c-0.9-4.3-0.9-8.7-0.8-13c0-1.6-0.1-3.3,0.4-4.9c0.2-0.8,0.9-1.7,1.7-1.5c0.5,0.1,0.8,0.5,1.1,0.9c1,1.5,1.9,3.2,3,4.7
				c2.3,3.1,5.9,5.1,9.6,6.1c1.3,0.3,2.6,0.6,3.7,1.2c1,0.6,1.9,1.5,2.9,2c1.2,0.6,4.8,3.2,4.8,3.2
				C1017.6,265.5,1015.1,265.9,1013.8,265.9z"/>
			<g>
				<path class="st5" d="M981.1,223.6h-22.3c-3.1-5-4.7-10.7-4.7-16.5v-8.9h21l0.5,9.1c0.3,5.6,2.1,11,5.1,15.7L981.1,223.6z"/>
				<path class="st6" d="M1020.7,223.6h-22.3c-3.1-5-4.7-10.7-4.7-16.5v-8.9h21l0.5,9.1c0.3,5.6,2,11,5.1,15.7L1020.7,223.6z"/>
				<path class="st5" d="M1058.5,223.6h-22.3c-3.1-5-4.7-10.7-4.7-16.5v-8.9h21l0.5,9.1c0.3,5.6,2,11,5.1,15.7L1058.5,223.6z"/>
				<path class="st7" d="M981.1,264.4h-22.3c-3.1-5-4.7-10.7-4.7-16.5V239h21l0.5,9.1c0.3,5.6,2.1,11,5.1,15.7L981.1,264.4z"/>
				<path class="st5" d="M1020.7,264.4h-22.3c-3.1-5-4.7-10.7-4.7-16.5V239h21l0.5,9.1c0.3,5.6,2,11,5.1,15.7L1020.7,264.4z"/>
			</g>
		</g>
		<g>
			<rect x="728.7" y="90.9" class="st3" width="1" height="338.6"/>
		</g>
		<g>
			<rect x="941" y="90.9" class="st3" width="1" height="338.6"/>
		</g>
		<g>
			<rect x="1063.6" y="90.9" class="st3" width="1" height="338.6"/>
		</g>
	</g>
	<g>
		
			<linearGradient id="SVGID_1_" gradientUnits="userSpaceOnUse" x1="1039.989" y1="788.7373" x2="1192.8644" y2="788.7373" gradientTransform="matrix(0.9998 1.836897e-02 1.836897e-02 -0.9998 -7.8579 1040.1508)">
			<stop  offset="0" style="stop-color:#000C47"/>
			<stop  offset="1" style="stop-color:#000826"/>
		</linearGradient>
		<path class="st8" d="M1059.1,261.3c3.1,13.9,5.8,28,5.3,42.2s-10.7,32.8-19.4,44c1.5,3.2,15,4.5,18.5,4.6
			c21.4,0.9,39.9-6.3,60.5-11.9c12.2-3.3,24.1-7.8,36-12.2c4-1.5,8.1-3,11.7-5.4c4.1-2.8,7.4-6.6,10.4-10.5
			c10.2-13.2,18.3-29.1,17.1-45.7c-0.8-10.4-5.1-20.2-5.6-30.6c-0.3-5.5,0.5-11.3-2-16.2c-3.4-6.8-11.6-9.4-18.9-11.6
			c-16.8-5.2-33-12.4-50.3-15.7s-36.3-2.2-50.7,8c-6.9,5-16.8,13.7-18.4,22.7C1051.4,235,1056.5,249.5,1059.1,261.3z"/>
		<path class="st9" d="M1349.4,736.5c0,0-19.3,12.9-42.9,15.9c-22.2,2.9-48.2-2.8-65.8-35.8c-36.3-68.2-17-150.5-17-150.5l4.4-4.3
			l62.4-61L1349.4,736.5z"/>
		<path class="st10" d="M1441.4,714.3l-6.7,1.6l-64.3,15.5l-21,5.1c0,0-82.4-54.8-109.7-198.9l6.6-1.8l75.4-20.6l45.3-12.4
			c0,0,13.3,26.6,35.5,48.3C1424.8,573,1455.5,613.1,1441.4,714.3z"/>
		<path class="st11" d="M1370.4,731.5l-21,5.1c0,0-82.4-54.8-109.7-198.9l6.6-1.8c1.3,5.1,2.5,10.9,3.8,17.6
			C1267,645.4,1341.2,709.4,1370.4,731.5z"/>
		<path class="st12" d="M1441.4,714.3l-6.7,1.6c9.5-89.9-18.5-133-41.8-152.4c-24.9-20.6-22.6-42.4-30.9-46.4s-46.4,8.5-46.4,8.5
			s2.3-4,6.1-10.3l45.3-12.4c0,0,13.3,26.6,35.5,48.3C1424.8,573,1455.5,613.1,1441.4,714.3z"/>
		
			<linearGradient id="SVGID_2_" gradientUnits="userSpaceOnUse" x1="1130.7" y1="856.7908" x2="1200.3" y2="856.7908" gradientTransform="matrix(1 0 0 -1 0 1080)">
			<stop  offset="0" style="stop-color:#000C47"/>
			<stop  offset="1" style="stop-color:#000C47"/>
		</linearGradient>
		<path class="st13" d="M1200.3,263.8c0,0-2.7-2.3-6.9-5.8c-12.6-10.7-38.1-32.9-39.4-37.3c-1.7-5.8-23.3-37-23.3-37
			s42.4-5,56.4,6.5c2.5,2.1,4.1,4.7,4.4,7.9C1193.3,219.5,1200.3,263.8,1200.3,263.8z"/>
		<path class="st12" d="M1200.3,263.8c0,0-2.7-2.3-6.9-5.8c-1.6-26.2-4-57.5-6.2-65.1c-0.3-1-0.3-1.9-0.1-2.7
			c2.5,2.1,4.1,4.7,4.4,7.9C1193.3,219.5,1200.3,263.8,1200.3,263.8z"/>
		<path class="st14" d="M1154.5,331.2c0,0,7.4-5.1,4.5-18c-2.2-9.7-7.2-22.3-17.9-36.3l28.1-59.6c0,0,4.8,15,18.6,31.7
			c10.7,12.9,26.7,26.9,50.1,35.9c0,0,30.1,53.4,17.1,63.4c-5.2,4-65.6,15.6-71.4,19.6C1169.1,378.1,1163.4,331.6,1154.5,331.2z"/>
		<path class="st15" d="M1187.9,249c-5.3,14.2-15.9,41.1-28.9,64.1c-2.2-9.7-7.2-22.3-17.9-36.3l28.1-59.6
			C1169.2,217.3,1174,232.3,1187.9,249z"/>
		<path class="st16" d="M1168.7,416.5c-8.3,24.3-14.9,194.2-14.9,194.2l-44.6-1.2l-8.6-0.2c0,0-5.2-122-6.3-174.5
			c-0.1-2.9-0.1-5.7,0.1-8.5c1.5-47.7,24.2-77.9,24.2-77.9s1.3,1,3.5,2.7c5.2,4.1,15.2,12.4,24.8,22.2c2.8,2.9,5.5,5.9,8.1,8.9
			C1164.7,394.1,1171.9,406.8,1168.7,416.5z"/>
		<path class="st17" d="M1109.1,609.5l-8.6-0.2c0,0-5.2-122-6.3-174.5c-0.1-2.9-0.1-5.7,0.1-8.5c1.5-47.7,24.2-77.9,24.2-77.9
			s1.3,1,3.5,2.7c-37.1,60.1-12,157.4-13,222.4C1108.8,576.5,1109.4,594,1109.1,609.5z"/>
		<path class="st4" d="M1366.9,502.9l-48.7,40.9l-34.9,15.6l-40.7,10.7l-19-3.9c0,0-6.2-54.5-26.4-78.7c-7.4-8.9-26.2-7.5-36.1-28.3
			c-1.3-2.5-2.3-5.5-3.3-8.8c-4.6-16.5-6.7-23.9-7.6-27.3c-0.8-2.8-0.8-2.8-0.8-2.8s-11.2-57.4-31.1-71.9c0,0,23.9-19.7,37-26.6
			c5.6-3,17.8,21.1,21.3,25.1c6.8,7.8,26.8-2.5,36-8.8l4.7-9.1c8.5-18.2,0.9-55.3,0.9-55.3s64-6.8,89.9,3.7s34.1,24.2,36.5,105.5
			C1347,464.3,1366.9,502.9,1366.9,502.9z"/>
		<path class="st18" d="M1221.5,505.1c3.2,12.7,14.9,46.9,21.2,65l-19-3.9c0,0-6.2-54.5-26.4-78.7c-7.4-8.9-26.2-7.5-36.1-28.3
			c35.7,28.5,86.4,9.1,88.6,8.3C1247.9,468.5,1216.5,485.6,1221.5,505.1z"/>
		<path class="st14" d="M1181.8,232.5c-3.9,7.2-9.2,2.8-9.2,2.8c-4.5,22.5-18.2,38.1-28.1,48.5c-1.7,1.8-3.4,3.4-4.9,4.8
			c-4.6,4.3-11.2,5.4-17,3.1c-49.7-19.4-55.9-85.6-55.9-85.6c2.2-18.7,21.4-35.4,21.4-35.4l20.2-3l29.7-4.4l31.9,47.4
			C1180.3,207,1186.6,223.6,1181.8,232.5z"/>
		<path class="st15" d="M1144.4,283.8c-1.7,1.8-3.4,3.4-4.9,4.8c-4.6,4.3-11.2,5.4-17,3.1c-49.7-19.4-55.9-85.6-55.9-85.6
			c2.2-18.7,21.4-35.4,21.4-35.4l20.2-3c1.7,5.9,2.8,11.8,2.8,11.8s-12.9,29.6-20.9,37.6c-8,8-0.4,40.4,7.4,49.5
			C1107.7,278.7,1128.3,299.6,1144.4,283.8z"/>
		
			<linearGradient id="SVGID_3_" gradientUnits="userSpaceOnUse" x1="1018.8476" y1="861.8043" x2="1175.3459" y2="861.8043" gradientTransform="matrix(0.999 4.460042e-02 4.460042e-02 -0.999 -12.8396 998.5909)">
			<stop  offset="0" style="stop-color:#000C47"/>
			<stop  offset="1" style="stop-color:#000C47"/>
		</linearGradient>
		<path class="st19" d="M1198.4,215.6c-0.8,0-1.5,0.1-2.2,0.1c-15.7,0.9-20.8,2.2-45.8-2.9c-24.5-5-47.1-17.9-47.1-17.9l-6.1,4.5
			l-19.4,3.9c0,0-9.8,21.9-12.6,28.2c-1.5,3.2-5.9,4.6-9.9,5.2l0,0c-3.7,0.6-7,0.4-7,0.4c-8-33.4-6.6-51.9,0.1-65.3c0,0,0,0,0-0.1
			c4.3-8.6,10.8-15.1,18.5-22.3c2-1.8,4-3.3,6.1-4.6c18.5-11.3,40.9-3.4,40.9-3.4s7.2-7.1,22.1-7.8s33,6.9,43.2,22.1
			C1203.5,191.8,1198.4,215.6,1198.4,215.6z"/>
		<path class="st11" d="M1055.4,236.9L1055.4,236.9c-3.7,0.6-7,0.4-7,0.4c-8-33.4-6.6-51.9,0.1-65.3
			C1037.8,197,1055.4,236.9,1055.4,236.9z"/>
		<path class="st12" d="M1198.4,215.6c-0.8,0-1.5,0.1-2.2,0.1c-0.3-2-0.5-4.2-0.6-6.8c-0.6-27.4-20.1-60.7-43.8-66.7
			c-16.1-4.1-30.5,4.3-30.5,4.3s0,0-16.8-4.3c-8.8-2.3-20.8-1.1-31.4,2.9c18.5-11.3,40.9-3.4,40.9-3.4s7.2-7.1,22.1-7.8
			s33,6.9,43.2,22.1C1203.5,191.8,1198.4,215.6,1198.4,215.6z"/>
		
			<linearGradient id="SVGID_4_" gradientUnits="userSpaceOnUse" x1="1073.2954" y1="862.2408" x2="1175.0948" y2="862.2408" gradientTransform="matrix(0.999 4.460042e-02 4.460042e-02 -0.999 -12.8396 998.5909)">
			<stop  offset="0" style="stop-color:#000C47"/>
			<stop  offset="1" style="stop-color:#000C47"/>
		</linearGradient>
		<path class="st20" d="M1200.1,177c0,0-1.7,12-12.9,15.9c0,0-0.1,0-0.2,0.1c-11.4,3.9-33.7,2.6-53.8-3.1c-20.1-5.7-36,9.6-36,9.6
			s0.2-10.9,4.4-19.2l0,0c0,0,0.1-0.1,0.1-0.2c0.4-0.7,0.7-1.3,1.1-1.9c0.7-1.1,1.6-2.2,2.5-3.1c1.9-1.9,4.4-3.2,7.3-3.5
			c0.4-0.1,0.9-0.1,1.3-0.1c16.4-0.5,35.3,7.2,47.6,8.1C1174,180.5,1183.5,180.4,1200.1,177z"/>
		
			<linearGradient id="SVGID_5_" gradientUnits="userSpaceOnUse" x1="1016.4792" y1="812.4294" x2="1073.3799" y2="812.4294" gradientTransform="matrix(0.999 4.460042e-02 4.460042e-02 -0.999 -12.8396 998.5909)">
			<stop  offset="0" style="stop-color:#000C47"/>
			<stop  offset="1" style="stop-color:#000C47"/>
		</linearGradient>
		<path class="st21" d="M1097.2,199.5c0,0-3.1,7.4-12.1,10.1c-6.8,2.1-10.9,19.9-18.2,30c-0.7,1-1.4,1.9-2.2,2.7
			c-0.9,1-1.9,1.8-2.9,2.5c-0.9,0.6-1.9,1.1-2.9,1.4c-13,3.8-19.5,26.7-19.5,26.7c-4.7-26.3,0.8-33.2,12.8-42.3
			c12-9,2.3-29.5,15-35.3c3.8-1.8,8.1-2.1,12.2-1.7l0,0c5.8,0.6,11.2,2.7,14.4,4.2C1096,198.8,1097.2,199.5,1097.2,199.5z"/>
		<path class="st11" d="M1079.4,193.6c-15.1-0.5-14.2,20.5-15.3,26.1c-1.1,5.7-8.8,14.2-16.3,22.7c-7.6,8.4-8.2,30.5-8.2,30.5
			c-4.7-26.3,0.8-33.2,12.8-42.3c12-9,2.3-29.5,15-35.3C1071.1,193.5,1075.3,193.2,1079.4,193.6z"/>
		<polygon class="st14" points="1169.5,518.7 1136,539.4 1101.4,566.2 1164.5,588.4 1205.5,546.8 		"/>
		<path class="st16" d="M1296.4,486.5l-100,86.7c0,0-1.1-2.3-3-6.1c-6.5-12.7-22.2-41.4-34.3-46.3l74.4-80c0,0-1.5-67.7,15.8-116.1
			l0,0c10.7-30.1,28.8-52.8,59-47.1C1387,292.5,1296.4,486.5,1296.4,486.5z"/>
		
			<linearGradient id="SVGID_6_" gradientUnits="userSpaceOnUse" x1="1079.1935" y1="853.2114" x2="1186.0216" y2="853.2114" gradientTransform="matrix(0.999 4.460042e-02 4.460042e-02 -0.999 -12.8396 998.5909)">
			<stop  offset="0" style="stop-color:#000C47"/>
			<stop  offset="1" style="stop-color:#000C47"/>
		</linearGradient>
		<path class="st22" d="M1209.6,209.2c-49.9,13.3-106.3-14.2-106.3-14.2s0.8-2.9,2.5-6.1c3.6-6.8,11.4-15.2,24.8-2.4
			C1150.5,205.4,1209.6,209.2,1209.6,209.2z"/>
		<path class="st12" d="M1097.2,199.5c0,0-3.1,7.4-12.1,10.1c-6.8,2.1-10.9,19.9-18.2,30c-0.5,0.5-1,1-1.4,1.4
			c7.7-12.9,13-33.7,15.7-33.6c3.4,0.2,13.5-6.4,13.6-8.2c0-0.4-0.4-1-0.9-1.6C1096,198.8,1097.2,199.5,1097.2,199.5z"/>
		<path class="st12" d="M1200.1,177c0,0-1.7,12-12.9,15.9c8.3-5.5,10.1-12.7,10.1-12.7s-16.4,3.7-30,3.5
			c-8.2-0.2-38.3-8.9-50.8-10.1c-4.1-0.4-10.4,0.4-13.6,4.7c0.7-1.1,1.6-2.2,2.5-3.1c1.9-1.9,4.4-3.2,7.3-3.5
			c0.4-0.1,0.9-0.1,1.3-0.1c16.4-0.5,35.3,7.2,47.6,8.1C1174,180.5,1183.5,180.4,1200.1,177z"/>
		<path class="st12" d="M1209.6,209.2c-13.1,2-63-6.4-76.9-16.6c-11.8-8.7-15.4-10.3-18.7-9.2c-1.9,0.6-4.8,1.5-8.3,5.6
			c3.6-6.8,11.4-15.2,24.8-2.4C1150.5,205.4,1209.6,209.2,1209.6,209.2z"/>
		<path class="st23" d="M1217.4,290.6c0,0,0.3,0,0.9-0.1C1217.7,290.7,1217.4,290.6,1217.4,290.6z"/>
		<path class="st11" d="M1306.5,752.5c-22.2,2.9-48.2-2.8-65.8-35.8c-36.3-68.2-17-150.5-17-150.5l6.2,1.8
			c9.8,2.1,12.8,2.1,12.8,2.1c-4.4,0.8-8.7,38.9-8.7,44.6c0,18.7,2,37.5,7.2,55.5c5.3,18.1,14,35.1,25.9,49.7
			C1273.7,728.1,1294.4,754.1,1306.5,752.5z"/>
	</g>
	<path class="st24" d="M819.9,360.5c1.2,2.5,2.4,4.8,3.8,7.1c2.6,4.4,5.7,8.5,8.9,12.5c1.4,1.9,2.9,3.7,4.4,5.6
		c8.1,10.1,14.2,22,19.2,33.9c0.7,1.6,20.3,5.4,21.4,5.7c18.5,3.4,13.9,6.7,24.1-9c10.2-15.7,13.7-34.8,16.4-53.4
		c0.3-2.1,0.6-4.2,0.8-6.3c0.2-1.4,0.4-2.8,0.5-4.3c0.6-7.2,0.6-14.4-1.2-21.4c-3.6-13.9-10.8-27.9-21.6-37.8
		c-4-3.6-8.5-6.2-13.3-8.1c-1.4-0.5-2.8-1-4.2-1.3l-1.5,8.9c-2.9-2.5-6.3-4.6-9.8-6.3c-2.1-1-4.2-1.8-6.4-2.5
		c-8-2.5-16.2-2.7-22.7-0.1c-8.5,3.3-14,6.9-18.8,14.9C808.7,317.3,811.1,341.2,819.9,360.5z"/>
	
		<linearGradient id="SVGID_7_" gradientUnits="userSpaceOnUse" x1="2535.4087" y1="576.8976" x2="2687.5015" y2="576.8976" gradientTransform="matrix(-1 0 0 -1 3493.7219 1080)">
		<stop  offset="0.1057" style="stop-color:#FFBD95"/>
		<stop  offset="0.6278" style="stop-color:#FF9A6A"/>
		<stop  offset="0.9923" style="stop-color:#F17954"/>
	</linearGradient>
	<path class="st25" d="M806.7,512.6c4.8,8.9,50.4,21.4,63,24.7c4.9,1.3,33.3,78,37.4,81c5,3.6,40.6-86.6,47.7-92.9
		c7.2-6.2,2-12.9-3.7-20.4c-2.5-3.3-39.3-37-42.7-55.4c-0.8-4.4-0.7-8.9,0.1-13.3c0.9-5.8,2.8-11.5,4.6-17.2
		c0.7-2.4,1.5-4.6,2.1-6.9c-2.7-1.2-5.7-2.5-8.8-3.7c-16.7-6.8-37.9-14.1-52.5-20.7c3.1,1.4-1.7,34.6-2.5,38.8
		c-0.4,2.7-1.1,5.3-2,7.9c-1.1,4-2.6,7.9-4.4,11.5c-2.2,4.4-4.9,8.5-8.3,12.2C827,469,802.5,504.6,806.7,512.6z"/>
	<path class="st26" d="M845.1,446c32.5-2.2,52.2-6.5,63.4-9.8c0.9-5.8,2.8-11.5,4.6-17.2c-2.1-3.3-4.4-6.9-6.7-10.7
		c-16.7-6.8-37.9-14.1-52.5-20.7c3.1,1.4-1.7,34.6-2.5,38.8c-0.4,2.7-1.1,5.3-2,7.9C848.4,438.5,846.9,442.4,845.1,446z"/>
	
		<linearGradient id="SVGID_8_" gradientUnits="userSpaceOnUse" x1="2534.24" y1="700.9" x2="2651.0278" y2="700.9" gradientTransform="matrix(-1 0 0 -1 3493.7219 1080)">
		<stop  offset="0.1057" style="stop-color:#FFBD95"/>
		<stop  offset="0.6278" style="stop-color:#FF9A6A"/>
		<stop  offset="0.9923" style="stop-color:#F17954"/>
	</linearGradient>
	<path class="st27" d="M846.4,388.8c4.8,4.8,9.5,4.8,9.5,4.8c5.4,20.9,57.4,41.2,57.4,41.2c0.7-0.3,1.4-0.7,2.2-1
		c46.7-21.7,44.3-100,43.8-109.5c-0.1-0.6-0.1-0.9-0.1-0.9H889l-22.2,44.5c0,0,2-4-12.8-6.7C839,358.4,841.7,384.1,846.4,388.8z"/>
	<path class="st24" d="M840.6,357.3c-0.1,1.7-0.3,3.5,0.8,4.9c1.7,2.4,5.5,1.4,8.5,1.2c6.8-0.5,10.3,0.3,13.9,6
		c3.7,5.6,0.3,13.4,1.7,20c10.3,8.9,6.9-17,12.8-23.8c6.8-8.1,18.2-6.5,21.7-15.5c1.3-3.4,4-2.5,9.6-6.5c6.3-4.5,15.1-3.7,32,2.2
		c10.6,1.9,18.7-4,22.7-7.4c14.4-12.2,29.2-27.6,9.2-29.5c-12.9-1.2-21-8.2-29.9-16.7c-8-7.6-17.4-12.7-27.4-15.6
		c-17.7-4.9-37.1-2.7-53.5,6.5c-0.4,0.2-0.8,0.5-1.2,0.7c-2.8,1.7-5.2,3.6-7.3,5.5c-7.7,7.3-10.1,15.7-13.6,24.9
		C835.8,326.6,842,343.9,840.6,357.3z"/>
	<path class="st12" d="M819.9,360.5c1.2,2.5,2.4,4.8,3.8,7.1c2.6,4.4,5.7,8.5,8.9,12.5c-0.6-1.4-0.9-3.2-2-4.6
		c-26.1-35.8-6.6-76.7,5.1-84.2c7.3-4.7,14.2-3.6,18.4-2.1c2.7,1,4.3,2.1,4.3,2.1s0,0,9.4-5.1c2.7-1.4,6-3.2,10.3-5.6
		c9.3-5,24.6-5.3,38-4.2c-17.7-4.9-37.1-2.7-53.5,6.5c-0.4,0.2-0.8,0.5-1.2,0.7c-8-2.5-16.2-2.7-22.7-0.1c-8.5,3.3-14,6.9-18.8,14.9
		C808.7,317.3,811.1,341.2,819.9,360.5z"/>
	<path class="st6" d="M982.5,484.7c0,0,41.9,34.5,53.9,91.1l6.9,25.3l-54.8,1.8l-45.5-2.6L982.5,484.7z"/>
	<path class="st7" d="M974.9,741.5l-172.4,7.6l-13.1,0.6l-13.6-108l-2.3-18.5c0,0,0.9-1,2.3-3.1c0.8-1.1,1.6-2.5,2.6-4.2
		c5.3-9.4,12.7-28.2,11.1-58c-0.4-6.5-1.4-12.7-3-18.5c-4.5-16.7-13.3-30.4-21.5-40.5c-9.7-11.9-18.8-18.7-19.4-19.1l0,0
		c17.4-12.4,67-25.9,97-27.3c-7.1,2.1,8.2,30.1,24.6,36.7c28.9,11.6,49.3-8.8,48.2-25c49.6,7.2,67.3,20.5,67.3,20.5
		c-0.2,0.9,2,8.7,3.1,19.4C996.6,604,974.9,741.5,974.9,741.5z"/>
	<path class="st28" d="M802.5,624.7V749l-13.1,0.6l-13.6-108l-2.3-18.5c0,0,0.9-1,2.3-3.1c0.8-1.1,1.6-2.5,2.6-4.2
		c5.3-9.4,12.7-28.2,11.1-58c-0.4-6.5-1.4-12.7-3-18.5C801.3,553.6,802.5,624.7,802.5,624.7z"/>
	<polygon class="st2" points="1504.5,701.1 1551.4,848.2 389.4,848.2 499.8,701.1 	"/>
	
		<linearGradient id="SVGID_9_" gradientUnits="userSpaceOnUse" x1="746.1196" y1="382.221" x2="661.998" y2="252.8033" gradientTransform="matrix(1 0 0 -1 0 1080)">
		<stop  offset="0" style="stop-color:#DAE3EA;stop-opacity:0.5"/>
		<stop  offset="0.8581" style="stop-color:#DAE3EA;stop-opacity:0"/>
	</linearGradient>
	<path class="st29" d="M666.5,750.5c-8.9,9.5-42.6,36.1-24.6,50.3c8.8,6.9,21.5,5.7,32,6.6c14.7,1.2,29.4,2.9,44.1,3.8
		c3.1,0.2,6.4-0.3,8.6-2.5c1.4-1.5,2.2-3.5,2.8-5.4c4.6-13.5,13.9-24.3,18.5-37.6c2.3-6.5,7.8-20.8-0.2-25.6
		c-2.3-1.4-5.1-1.6-7.8-1.8c-10.7-0.8-21.3-1.7-32-2.7c-8.2-0.7-21.8-4.8-28.8,0.7c-3,2.3-5.1,5.5-7.4,8.4
		C670,746.6,668.3,748.6,666.5,750.5z"/>
	
		<linearGradient id="SVGID_10_" gradientUnits="userSpaceOnUse" x1="1392.821" y1="382.2233" x2="1308.6995" y2="252.8056" gradientTransform="matrix(1 0 0 -1 0 1080)">
		<stop  offset="0" style="stop-color:#DAE3EA;stop-opacity:0.5"/>
		<stop  offset="0.8581" style="stop-color:#DAE3EA;stop-opacity:0"/>
	</linearGradient>
	<path class="st30" d="M1313.2,750.5c-8.9,9.5-42.6,36.1-24.6,50.3c8.8,6.9,21.5,5.7,32,6.6c14.7,1.2,29.4,2.9,44.1,3.8
		c3.1,0.2,6.4-0.3,8.6-2.5c1.4-1.5,2.2-3.5,2.8-5.4c4.6-13.5,13.9-24.3,18.5-37.6c2.3-6.5,7.8-20.8-0.2-25.6
		c-2.3-1.4-5.1-1.6-7.8-1.8c-10.7-0.8-21.3-1.7-32-2.7c-8.2-0.7-21.8-4.8-28.8,0.7c-3,2.3-5.1,5.5-7.4,8.4
		C1316.7,746.6,1315,748.6,1313.2,750.5z"/>
	
		<linearGradient id="SVGID_11_" gradientUnits="userSpaceOnUse" x1="1060.9312" y1="574.4232" x2="1029.3551" y2="143.2788" gradientTransform="matrix(1 0 0 -1 0 1080)">
		<stop  offset="0" style="stop-color:#DAE3EA;stop-opacity:0.5"/>
		<stop  offset="0.8581" style="stop-color:#DAE3EA;stop-opacity:0"/>
	</linearGradient>
	<path class="st31" d="M1445.1,701.1c-19.7,23.9-97.4,123.4-115.1,131.3c-11,4.9-256.6,0.4-272.3,0c-74.9-2-50.7,0.6-125.5-2.2
		c-53.5-2-210.1,9.6-254.8-6c-91.7-31.9,18.4-71.4,33.9-114.8c0.6-1.7,2-4.6,3.9-8.3H1445.1z"/>
	
		<linearGradient id="SVGID_12_" gradientUnits="userSpaceOnUse" x1="694.0184" y1="417.65" x2="911" y2="417.65" gradientTransform="matrix(1 0 0 -1 0 1080)">
		<stop  offset="0" style="stop-color:#FF9A6A"/>
		<stop  offset="0.8943" style="stop-color:#FFBD95"/>
	</linearGradient>
	<path class="st32" d="M911,705v31.4c0,0-191.2-6.2-207.8-33c-7-11.2-11.2-74.5-8.2-100.6c1.1-9,2.4-14.5,2.4-14.5l89.8,0.7
		l-1.4,24.3l-3.3,38.3C819.3,679.3,911,705,911,705z"/>
	<path class="st6" d="M793.8,627.1c0,0-6.6-3.9-18.1-7.1c-11.5-3.2-27.8-5.8-47.2-3.1c-38.6,5.3-49.7,0.4-49.7,0.4
		c10-87.2,66.6-137.5,66.6-137.5l0,0c9.5,4,17.3,10.2,23.6,17.9C804,540.2,793.8,627.1,793.8,627.1z"/>
	<path class="st33" d="M1554.4,848.2h-1159c-9.8,0-17.7,7.9-17.7,17.7v13.4c0,9.8,7.9,17.7,17.7,17.7h1159c4.2,0,7.7-3.4,7.7-7.7
		v-33.5C1562,851.7,1558.6,848.2,1554.4,848.2z"/>
	<path class="st34" d="M1471.9,897.1v79.6c-10.2,5.2-20.7,9.7-31.4,13.6c-1.5,0.5-3,1.1-4.4,1.6c-45.1,15.7-93.4,20.7-140.8,20.6
		c-67.5-0.1-140.8-12.6-212.8-20.3c-6.2-0.7-12.5-1.3-18.7-1.9c-39.3-3.7-78-5.5-115.1-2.6c-10.5,0.8-21.4,1.7-32.4,2.6
		c-8.1,0.6-16.3,1.3-24.6,1.9l0,0C773,1001.1,631.9,1009,512,994c-1.3-0.2-2.6-0.3-3.9-0.5v-96.4L1471.9,897.1L1471.9,897.1z"/>
	
		<linearGradient id="SVGID_13_" gradientUnits="userSpaceOnUse" x1="990" y1="-8.5454" x2="990" y2="295.7488" gradientTransform="matrix(1 0 0 -1 0 1080)">
		<stop  offset="0.3998" style="stop-color:#FFFFFF;stop-opacity:0"/>
		<stop  offset="0.4614" style="stop-color:#C4C4C4;stop-opacity:3.665884e-02"/>
		<stop  offset="0.5237" style="stop-color:#919191;stop-opacity:7.373141e-02"/>
		<stop  offset="0.5871" style="stop-color:#646464;stop-opacity:0.1115"/>
		<stop  offset="0.6505" style="stop-color:#404040;stop-opacity:0.1492"/>
		<stop  offset="0.7138" style="stop-color:#242424;stop-opacity:0.1869"/>
		<stop  offset="0.7771" style="stop-color:#101010;stop-opacity:0.2246"/>
		<stop  offset="0.8403" style="stop-color:#040404;stop-opacity:0.2623"/>
		<stop  offset="0.9037" style="stop-color:#000000;stop-opacity:0.3"/>
	</linearGradient>
	<rect x="508.1" y="897.1" class="st35" width="963.8" height="34.4"/>
	<g>
		<path class="st36" d="M1166.9,747.2H883.4c-5,0-9.3-3.4-10.4-8.3l-23.4-182.8c-1.5-6.7,3.5-13,10.4-13h337.4
			c7,0,12.1,6.7,10.3,13.5l-30.5,182.8C1175.9,744,1171.7,747.2,1166.9,747.2z"/>
		<path class="st33" d="M1173.6,760.4h-297c-3.2,0-6.1-2.1-7.3-5.3l0,0c-2.1-5.5,1.7-11.5,7.3-11.5h297c5.9,0,9.7,6.8,6.9,12.4l0,0
			C1179.2,758.7,1176.5,760.4,1173.6,760.4z"/>
		<circle class="st23" cx="1028.7" cy="648.1" r="25.1"/>
		<polygon class="st37" points="919.2,743.6 887.8,743.6 1024.9,543.1 1056.3,543.1 		"/>
		<polygon class="st37" points="997.5,743.6 937,743.6 1074.1,543.1 1134.6,543.1 		"/>
	</g>
	<g>
		<path class="st23" d="M763.1,672.9l-12.8,61.9c-1.2,5.5-4.4,10.1-8.6,12.7l0,0c-2.6,1.6-5.5,2.5-8.6,2.5H704
			c-8.3,0-15.5-6.3-17.3-15.2l-1.8-8.5l-1.6-7.6l-7.6-36.7l-1.6-7.6l-0.3-1.5c-0.7-3.3,0.7-6.4,3-8.1c1.1-0.8,2.3-1.2,3.7-1.2h76
			c0.8,0,1.6,0.2,2.3,0.4C761.9,665.3,763.9,669,763.1,672.9z"/>
		<g>
			<path class="st7" d="M736.4,691.1c0-0.2-0.2-0.4-0.4-0.4s-3.6-0.1-3.6-0.1s-2.9-2.8-3.2-3.1s-0.8-0.2-1.1-0.1
				c0,0-0.5,0.2-1.5,0.5c-0.2-0.5-0.4-1.1-0.7-1.7c-1-2-2.5-3-4.4-3l0,0c-0.1,0-0.3,0-0.4,0c-0.1-0.1-0.1-0.1-0.2-0.2
				c-0.8-0.9-1.8-1.3-3-1.2c-2.4,0.1-4.7,1.8-6.6,4.8c-1.3,2.1-2.4,4.8-2.6,6.9c-2.7,0.8-4.6,1.4-4.6,1.4c-1.4,0.4-1.4,0.5-1.6,1.8
				c-0.1,1-3.7,28.6-3.7,28.6l30,5.2l13-3.2C741.7,727.2,736.4,691.4,736.4,691.1z M725.1,688.4c-0.7,0.2-1.5,0.5-2.3,0.7
				c0-1.2-0.2-2.9-0.7-4.3C723.9,685.1,724.8,687.2,725.1,688.4z M721.2,689.6c-1.6,0.5-3.3,1-5,1.5c0.5-1.9,1.4-3.7,2.5-4.9
				c0.4-0.4,1-1,1.7-1.2C721.1,686.3,721.3,688.3,721.2,689.6z M718,683.3c0.6,0,1,0.1,1.4,0.4c-0.6,0.3-1.3,0.8-1.8,1.4
				c-1.5,1.6-2.6,4.1-3.1,6.5c-1.4,0.4-2.8,0.9-4.1,1.3C711.2,689.1,714.4,683.5,718,683.3z"/>
			<path class="st6" d="M736,690.8c-0.2,0-3.6-0.1-3.6-0.1s-2.9-2.8-3.2-3.1c-0.1-0.1-0.3-0.2-0.4-0.2v43l13-3.2
				c0,0-5.3-35.8-5.3-36.1C736.4,690.9,736.2,690.8,736,690.8z"/>
			<path class="st23" d="M721.6,697.4l-1.5,5.6c0,0-1.7-0.8-3.7-0.6c-2.9,0.2-3,2-2.9,2.5c0.2,2.5,6.8,3.1,7.2,9
				c0.3,4.6-2.5,7.8-6.4,8.1c-4.8,0.3-7.4-2.5-7.4-2.5l1-4.3c0,0,2.6,2,4.8,1.9c1.4-0.1,1.9-1.2,1.8-2c-0.2-3.3-5.6-3.1-6-8.5
				c-0.3-4.6,2.7-9.2,9.3-9.6C720.3,696.8,721.6,697.4,721.6,697.4z"/>
		</g>
		<g>
			<path class="st23" d="M678.3,677.1l1.6,7.6c-10.1,0.4-18.1,8.8-18.1,19c0,10.5,8.5,19,19,19c2.4,0,4.7-0.4,6.8-1.3l1.6,7.6
				c-2.6,0.9-5.4,1.3-8.3,1.3c-14.7,0-26.7-12-26.7-26.7C654.1,689.9,664.8,678.4,678.3,677.1z"/>
		</g>
		<path class="st33" d="M690.1,757.4h56.1c7.3,0,10.1-6.1,4-8.6c-1.2-0.5-2.6-0.7-4-0.7h-56.1c-1.4,0-2.8,0.3-4,0.8
			C680.1,751.4,682.9,757.4,690.1,757.4z"/>
		<path class="st33" d="M758.9,664.1c-33.2,10.8-69.5,3.8-82,0.8c1.1-0.8,2.3-1.2,3.7-1.2h76C757.4,663.6,758.2,663.8,758.9,664.1z"
			/>
		<path class="st38" d="M720.3,669.7c0.4-4.4,0.4-8.9-1.5-12.5c-1.8-3.5-5.2-5.8-8.9-7.3c-3.7-1.6-7.9-2.4-12.4-3.7
			c-2.2-0.7-4.5-1.6-6.7-2.8s-4.4-2.9-6.2-5.2c-0.9-1.1-1.7-2.5-2.2-3.9c-0.4-1.4-0.9-2.8-1-4.5c-0.1-0.8,0-1.7,0.2-2.7
			c0.1-0.9,0.5-1.8,1-2.7c0.9-1.7,2.2-3,3.6-4c2.7-1.8,5.3-2.5,7.8-3.1c2.5-0.5,4.9-0.8,7.2-0.9c9.2-0.6,18.4,0.5,27.1,1.6l6.5,0.8
			c2.2,0.3,4.1,0.5,5.7,0.4c1.7-0.1,2.8-0.3,3.8-0.9c1-0.6,1.3-1.2,1.4-1.7c0.2-0.5-0.1-1.7-0.8-2.7s-1.8-1.9-3.4-2.6
			c-1.6-0.8-3.4-1.3-5.5-2c-2.2-0.7-4.4-1.5-6.5-2.4c-8.4-3.5-16.8-8.3-22.6-16.1c-2.8-3.9-4.5-8.9-4.1-13.6c0.3-4.7,1.8-8.9,3.4-13
			c-0.5,4.4-1.1,8.8-0.5,12.9c0.4,4.2,2.3,7.7,5.1,10.5c2.7,2.9,6.2,5.2,9.9,7.1c3.7,1.9,7.6,3.4,11.6,4.7c2,0.6,4,1.1,6,1.6
			c2.1,0.5,4.5,1.1,7,2.1c4.8,1.9,10.7,6.9,10.2,14.7c-0.2,1.9-0.9,3.8-1.9,5.3s-2.3,2.7-3.7,3.6c-2.7,1.8-6,2.6-8.7,2.7
			c-2.8,0.1-5.2-0.2-7.4-0.4l-6.6-0.8c-8.7-1.2-17.1-2.2-25.4-2.1c-2,0-4,0.1-5.9,0.4c-1.8,0.3-3.5,0.8-4.5,1.4
			c-1,0.7-1,0.8-1.2,1.8c-0.1,0.5,0.1,1.2,0.2,1.9c0.2,0.7,0.4,1.3,0.8,1.9c1.6,2.6,5,4.7,8.8,6.4s8.1,3.1,12.3,5.5
			c4,2.4,8,6,9.3,10.8C722.8,661,721.7,665.6,720.3,669.7z"/>
		<path class="st38" d="M731.9,537.3c-1.6,4.3-1.9,8-1.6,11.8c0.3,3.7,1.2,7.6,2.3,11c1.3,3.6,3.3,7.7,3.5,12.8s-2.4,10-6.2,12.3
			c1.3-4.3,1.3-8.2,0.3-11.5s-3.2-6.7-4.7-11.1c-1.6-4.6-2-9.3-1.1-14C725.1,544,727.8,539.4,731.9,537.3z"/>
		<path class="st34" d="M690.1,757.4h11.1c-1.3,0-3.4-1.2-4.2-2.3c-0.5-0.8-0.7-2-0.3-2.9c0.2-0.5,0.7-0.9,1.2-1.1
			c2.1-1,4.8-1.3,7.1-1.6c4.8-0.7,9.7-1,14.6-1.2c2.9-0.1,5.7-0.2,8.6-0.3h-38.1c-1.4,0-2.8,0.3-4,0.8
			C680.1,751.4,682.9,757.4,690.1,757.4z"/>
	</g>
	<path class="st39" d="M938.2,364.6"/>
	<g>
		<path class="st6" d="M1398.3,624.3c-2.2,10.5-5,20.8-8.3,30.9c-0.8,2.7-7.3,29.1-6.6,29c-1.5,0.1-2.9,0.2-4.4,0.4
			c-5.3,0.5-10.5,0.9-16,0.4c-2.8-0.2-5.8-0.7-7.8-2.8c-1.5-1.6-2-3.8-2.4-5.9c-2.3-13.8-0.6-28-1.3-41.9c0-1-0.1-1.9-0.2-2.9
			c-0.9-13.3-3-26.5-7.1-39.2c-3.9-12.2-13.3-29.1-15.4-44.7c-1.3-9.6,0.3-18.7,7.7-25.9c8.4-8.1,24.5-9.8,35.3-6.7
			c12.4,3.5,21.6,16,25.9,27.4C1407.7,568.5,1403.8,597.8,1398.3,624.3z"/>
		<path class="st37" d="M1398.3,624.3c-2.2,10.5-5,20.8-8.3,30.9c-0.8,2.7-7.3,29.1-6.6,29c-1.5,0.1-2.9,0.2-4.4,0.4
			c0-0.3-0.1-0.6-0.1-0.9c-2.6-19.5,8-38,12.2-57.2c2.2-10.2,2.6-20.6,2.7-31c0.2-21,1.1-52.2-16.3-67.5c-8.4-7.5-21.4-9.4-31.6-4.6
			c-7.6,3.5-11.9,9.2-14.5,15.9c-1,2.7-1.8,5.5-2.4,8.4c-1.3-9.6,0.3-18.7,7.7-25.9c8.4-8.1,24.5-9.8,35.3-6.7
			c12.4,3.5,21.6,16,25.9,27.4C1407.7,568.5,1403.8,597.8,1398.3,624.3z"/>
		<path class="st7" d="M1355.8,676.7c-0.1,1.6-0.1,3.2-0.3,4.8c-0.3,3-0.9,5.9-2.5,8.4c-8.7,1.4-17.8,1.2-26.2-1.4
			c5.7-12.1-1.7-27.6-8.6-37.6c-8.5-12.1-22.3-17-31.2-28.5c-2-2.6-3.7-5.6-4.9-8.8c-2.6-6.6-3-13.9,0-20.2c9.1-19,36-15.8,50.6-6.1
			C1360.8,606.1,1357,647.4,1355.8,676.7z"/>
		<path class="st7" d="M1456.9,624.1c-3.8,6.8-9.7,12.2-16,17c-7.2,5.4-15.3,9.5-21.3,16.4c-6.4,7.4-11.2,16.1-14.5,25.2
			c-0.4,0.9-0.7,1.9-1,2.8c-0.2,0.7,0,0-0.7,0c-4.3,0-18.5,0.9-22.8,0.9c-1,0,0.5-17.3,0.7-19c2.9-19.1,10.2-36,18.7-53.2
			c5-10.2,15.1-17.9,25.7-21.7c2.4-0.9,4.9-1.6,7.5-2.1c10.6-2,22-0.4,26.4,11.2C1462.2,608.8,1460.7,617.3,1456.9,624.1z"/>
		<path class="st40" d="M1365.3,688.8c2-10.9,3.5-22.1,4.7-33.2c1.2-11.2,1.9-22.4,2.3-33.6c0.3-11.2,0-22.5-0.8-33.7
			c-1-11.2-2.6-22.4-5.3-33.4c3.3,10.8,5.5,21.9,7.1,33.2c1.4,11.2,2.3,22.6,2.6,33.9c0.3,11.3,0.1,22.7-0.5,34.1
			c-0.6,11.4-1.5,22.6-3,34L1365.3,688.8z"/>
		<path class="st40" d="M1385.6,686.3c1.7-6.9,4-13.1,6.7-19.4c2.7-6.2,5.9-12.1,9.5-17.8c1.7-2.9,3.8-5.6,5.7-8.3
			c2.1-2.6,4.1-5.3,6.4-7.7c4.4-5.1,9.5-9.4,14.7-13.5c-4.8,4.6-9.4,9.3-13.3,14.6c-2.1,2.5-3.7,5.4-5.6,8.1
			c-1.6,2.8-3.4,5.6-4.8,8.6c-3,5.8-5.5,11.8-7.5,18c-2,6.1-3.7,12.6-4.6,18.6L1385.6,686.3z"/>
		<path class="st37" d="M1456.9,624.1c-3.8,6.8-9.7,12.2-16,17c-7.2,5.4-15.3,9.5-21.3,16.4c-6.4,7.4-11.2,16.1-14.5,25.2
			c-0.2-16.4,13.3-33.8,25.5-43.1c5.4-4.1,11.4-7.4,15.7-12.6c7.4-9,7.5-23.9-1.4-31.4c-3.4-2.8-7.4-4.5-11.8-5.2
			c10.6-2,22-0.4,26.4,11.2C1462.2,608.8,1460.7,617.3,1456.9,624.1z"/>
		<path class="st37" d="M1355.8,676.7c-0.1,1.6-0.1,3.2-0.3,4.8c0,0,0,0,0-0.1c-0.8-1.5-0.8-3.3-0.9-5c-1.1-28,0.6-65-25.8-83.1
			c-9.4-6.4-21.9-8.1-32.7-4.4c-3.4,1.2-6.6,2.9-9,5.5c-2.3,2.6-3.6,5.9-4.2,9.3c-0.1,0.7-0.3,1.4-0.4,2.1c-0.2,1.7,0.1,5.1-0.4,7.7
			c-2.6-6.6-3-13.9,0-20.2c9.1-19,36-15.8,50.6-6.1C1360.8,606.1,1357,647.4,1355.8,676.7z"/>
		<path class="st40" d="M1343.1,692.6c0.4-3.3,0.5-7.3,0.3-11c0-1.9-0.3-3.8-0.4-5.6l-0.7-5.6c-1.2-7.5-3.2-14.9-5.9-22
			c-2.8-7.1-6.2-14.1-10.5-20.5c-4.1-6.6-9.2-12.4-14.5-18.1c5.7,5.3,11.3,10.8,16,17.1c4.9,6.2,8.9,12.9,12.4,20.1
			c3.4,7.1,6.1,14.6,8,22.4l1.2,5.9c0.3,2,0.7,3.9,0.9,5.9c0.3,2,0.4,4,0.6,6c0.1,2.1,0.2,4,0.1,6.3L1343.1,692.6z"/>
		<polygon class="st36" points="1311.1,675.7 1318.4,700.8 1418.9,700.8 1426.2,675.7 		"/>
		<polygon class="st23" points="1324.3,700.8 1341.3,751.3 1396,751.3 1413,700.8 		"/>
		<polygon class="st33" points="1311.1,675.7 1318.4,700.8 1324.3,700.8 1341.3,751.3 1361.1,751.3 1343.1,700.8 1336.2,700.8 
			1328.7,675.7 		"/>
	</g>
	<g>
		<g class="st41">
			<path class="st42" d="M1031.7,452.2h-82.1c-5.7,0-10.3,4.8-10.3,10.8v38.3c0,6,4.6,10.8,10.3,10.8h50.7
				c5.8,4.3,15.7,10.2,27.6,11.8c0,0-3-5.8-4.3-11.8h8c5.7,0,10.3-4.8,10.3-10.8V463C1042,457.1,1037.4,452.2,1031.7,452.2z
				 M969,489c-2.6,0-4.7-2.9-4.7-6.5s2.1-6.5,4.7-6.5c2.6,0,4.7,2.9,4.7,6.5S971.6,489,969,489z M991.3,489c-2.6,0-4.7-2.9-4.7-6.5
				s2.1-6.5,4.7-6.5c2.6,0,4.7,2.9,4.7,6.5S993.9,489,991.3,489z M1011.9,489c-2.6,0-4.7-2.9-4.7-6.5s2.1-6.5,4.7-6.5
				c2.6,0,4.7,2.9,4.7,6.5S1014.6,489,1011.9,489z"/>
		</g>
		<circle class="st4" cx="968.8" cy="482.4" r="6.5"/>
		<circle class="st4" cx="991.3" cy="482.4" r="6.5"/>
		<circle class="st4" cx="1011.9" cy="482.4" r="6.5"/>
	</g>
	<g>
		<g class="st43">
			<path class="st44" d="M819.4,619.3H541.7c-3.7,0-6.7-3-6.7-6.7V501.5c0-3.7,3-6.7,6.7-6.7h277.7c3.7,0,6.7,3,6.7,6.7v111.1
				C826,616.3,823,619.3,819.4,619.3z"/>
		</g>
		<path class="st4" d="M795.1,527.6H609.6c-1.5,0-2.6-1.2-2.6-2.6v-4.6c0-1.5,1.2-2.6,2.6-2.6h185.5c1.5,0,2.6,1.2,2.6,2.6v4.6
			C797.7,526.4,796.5,527.6,795.1,527.6z"/>
		<path class="st4" d="M684.9,545h-75.3c-1.5,0-2.6-1.2-2.6-2.6v-4.6c0-1.5,1.2-2.6,2.6-2.6h75.3c1.5,0,2.6,1.2,2.6,2.6v4.6
			C687.6,543.9,686.4,545,684.9,545z"/>
		<path class="st4" d="M795.1,579H609.6c-1.5,0-2.6-1.2-2.6-2.6v-4.6c0-1.5,1.2-2.6,2.6-2.6h185.5c1.5,0,2.6,1.2,2.6,2.6v4.6
			C797.7,577.8,796.5,579,795.1,579z"/>
		<path class="st4" d="M662.6,596.5h-53c-1.5,0-2.6-1.2-2.6-2.6v-4.6c0-1.5,1.2-2.6,2.6-2.6h53c1.5,0,2.6,1.2,2.6,2.6v4.6
			C665.3,595.3,664.1,596.5,662.6,596.5z"/>
		<path class="st4" d="M559.3,518.5v11.3c0,6.8,3.5,13.2,9.4,16.8l8.8,5.4l8.8-5.4c5.8-3.6,9.4-9.9,9.4-16.8v-11.3l-18.2-6.5
			L559.3,518.5z"/>
		<path class="st42" d="M574.9,537.8c-0.2,0.2-0.5,0.3-0.8,0.3s-0.6-0.1-0.8-0.3l-6.3-6.3c-0.7-0.7-0.7-1.7,0-2.4l0.8-0.8
			c0.7-0.7,1.7-0.7,2.4,0l3.9,3.9l10.6-10.6c0.7-0.7,1.7-0.7,2.4,0l0.8,0.8c0.7,0.7,0.7,1.7,0,2.4L574.9,537.8z"/>
		<path class="st4" d="M559.3,571.1v11.8c0,6.8,3.5,13.1,9.3,16.7l8.9,5.6l8.9-5.6c5.8-3.6,9.3-9.9,9.3-16.7v-11.8l-18.2-6.6
			L559.3,571.1z"/>
		<path class="st42" d="M574.9,590.6c-0.2,0.2-0.5,0.3-0.8,0.3s-0.6-0.1-0.8-0.3l-6.3-6.3c-0.7-0.7-0.7-1.7,0-2.4l0.8-0.8
			c0.7-0.7,1.7-0.7,2.4,0l3.9,3.9l10.6-10.6c0.7-0.7,1.7-0.7,2.4,0l0.8,0.8c0.7,0.7,0.7,1.7,0,2.4L574.9,590.6z"/>
	</g>
	<g>
		<g class="st43">
			<path class="st44" d="M1372.9,527.5h-260.4c-3.7,0-6.7-3-6.7-6.7v-83.7c0-3.7,3-6.7,6.7-6.7h260.4c3.7,0,6.7,3,6.7,6.7v83.7
				C1379.5,524.5,1376.5,527.5,1372.9,527.5z"/>
		</g>
		<path class="st4" d="M1182.6,505.9h-44.2c-2.5,0-4.5-2-4.5-4.5v-44.2c0-2.5,2-4.5,4.5-4.5h44.2c2.5,0,4.5,2,4.5,4.5v44.2
			C1187.2,503.9,1185.1,505.9,1182.6,505.9z"/>
		<path class="st4" d="M1262.2,474.2h-55.8c-1.8,0-3.2-1.4-3.2-3.2v-8c0-1.8,1.4-3.2,3.2-3.2h55.8c1.8,0,3.2,1.4,3.2,3.2v8
			C1265.4,472.7,1264,474.2,1262.2,474.2z"/>
		<path class="st4" d="M1344.5,499.5h-138c-1.8,0-3.2-1.4-3.2-3.2v-8c0-1.8,1.4-3.2,3.2-3.2h138c1.8,0,3.2,1.4,3.2,3.2v8
			C1347.7,498,1346.2,499.5,1344.5,499.5z"/>
		<g class="st43">
			<g>
				<path class="st44" d="M1161.5,476.3v-9.5c2,0.3,3.9,1.2,5.6,2.4c0.3,0.2,0.7,0.3,1.1,0.3c1.3,0,2.3-1,2.3-2.3
					c0-0.5-0.2-1.1-0.6-1.5c-2.4-2-5.3-3.2-8.4-3.4v-3.2c0-0.9-0.7-1.6-1.6-1.6c0,0,0,0-0.1,0c-0.9,0-1.7,0.7-1.7,1.6v3.1
					c-6.1,0.4-10.2,4.2-10.2,9.2c0,6.1,5.2,7.8,10.2,9.2v10.8c-2.6-0.4-5.1-1.4-7.1-3.1c-0.4-0.3-0.9-0.5-1.3-0.5
					c-1.2,0.1-2.2,1.1-2.2,2.4c0,0.5,0.2,1.1,0.6,1.5c2.8,2.5,6.4,3.9,10.1,4.1v3c0,0,0,0,0,0.1c0,0.9,0.8,1.6,1.7,1.6
					c0.9,0,1.6-0.7,1.6-1.6v-3c7.3-0.5,10.3-5,10.3-9.7C1171.8,479.5,1166.5,477.6,1161.5,476.3z M1158.1,475.4
					c-2.9-0.9-5.2-1.7-5.2-4.3s2.1-4.3,5.2-4.5V475.4z M1161.5,491.4v-9.8c3,0.9,5.4,2,5.4,4.8
					C1166.9,488.5,1165.5,491,1161.5,491.4z"/>
			</g>
		</g>
	</g>
</g>
<g class="st45">
	
		<linearGradient id="SVGID_14_" gradientUnits="userSpaceOnUse" x1="1138.8571" y1="682.507" x2="2630.5208" y2="2174.1707" gradientTransform="matrix(1 0 0 -1 0 1660)">
		<stop  offset="0" style="stop-color:#FFFFFF;stop-opacity:0"/>
		<stop  offset="1" style="stop-color:#FFFFFF"/>
	</linearGradient>
	<polygon class="st46" points="1918.9,27 1918.9,367.9 1267.3,1019.4 926.5,1019.4 	"/>
	
		<linearGradient id="SVGID_15_" gradientUnits="userSpaceOnUse" x1="1084.3074" y1="737.0574" x2="2575.9692" y2="2228.719" gradientTransform="matrix(1 0 0 -1 0 1660)">
		<stop  offset="0" style="stop-color:#FFFFFF;stop-opacity:0"/>
		<stop  offset="1" style="stop-color:#FFFFFF"/>
	</linearGradient>
	<polygon class="st47" points="1918.9,0 1918.9,217.6 1117,1019.4 858.6,1019.4 1878,0 	"/>
	
		<linearGradient id="SVGID_16_" gradientUnits="userSpaceOnUse" x1="522.7867" y1="521.9365" x2="2728.333" y2="2727.4834" gradientTransform="matrix(1 0 0 -1 0 1660)">
		<stop  offset="0" style="stop-color:#FFFFFF;stop-opacity:0"/>
		<stop  offset="1" style="stop-color:#FFFFFF"/>
	</linearGradient>
	<path class="st48" d="M1784.2,0L742.3,1030.8c-47.7-82.6-50-97.4-39.9-195.7L1561,0H1784.2z"/>
</g>
</svg>
